<svg preserveAspectRatio="none" width="100%" height="100%" overflow="visible" style="display: block;" viewBox="0 0 12 12" fill="none" xmlns="http://www.w3.org/2000/svg">
<g id="aws-color 1" clip-path="url(#clip0_1082_681)">
<path id="Vector" fill-rule="evenodd" clip-rule="evenodd" d="M3.3815 5.606C3.3815 5.754 3.3975 5.8735 3.4255 5.961C3.4575 6.049 3.4975 6.145 3.5535 6.249C3.5735 6.2805 3.5815 6.3125 3.5815 6.3405C3.5815 6.3805 3.5575 6.4205 3.5055 6.4605L3.254 6.628C3.2236 6.64992 3.18744 6.66243 3.15 6.664C3.11 6.664 3.07 6.644 3.0305 6.608C2.97679 6.55023 2.92874 6.48744 2.887 6.4205C2.8423 6.34382 2.80093 6.26524 2.763 6.185C2.452 6.552 2.0605 6.7355 1.5895 6.7355C1.2545 6.7355 0.987 6.64 0.7915 6.4485C0.5965 6.2565 0.4965 6.0015 0.4965 5.682C0.4965 5.343 0.6165 5.067 0.8595 4.86C1.103 4.6525 1.426 4.5485 1.837 4.5485C1.973 4.5485 2.1125 4.5605 2.26 4.5805C2.408 4.6005 2.56 4.6325 2.719 4.6685V4.377C2.719 4.0735 2.6555 3.862 2.5315 3.7385C2.404 3.6145 2.1885 3.555 1.8815 3.555C1.7415 3.555 1.5975 3.5705 1.45 3.6065C1.3025 3.6425 1.1585 3.6865 1.019 3.7425C0.973458 3.76272 0.926701 3.78009 0.879 3.7945C0.858436 3.80113 0.837082 3.80499 0.8155 3.806C0.7595 3.806 0.7315 3.766 0.7315 3.6825V3.487C0.7315 3.423 0.7395 3.375 0.7595 3.347C0.789703 3.3107 0.828087 3.28208 0.8715 3.2635C1.03141 3.1841 1.20005 3.12369 1.374 3.0835C1.57751 3.0314 1.78694 3.00602 1.997 3.008C2.472 3.008 2.819 3.116 3.0425 3.3315C3.2625 3.5465 3.3735 3.874 3.3735 4.313V5.606H3.3815ZM1.7615 6.213C1.893 6.213 2.0285 6.189 2.1725 6.141C2.31887 6.09042 2.4495 6.00253 2.5515 5.886C2.61597 5.81229 2.66251 5.72468 2.6875 5.63C2.711 5.5345 2.7275 5.4185 2.7275 5.283V5.1155C2.60637 5.08597 2.48368 5.06327 2.36 5.0475C2.23562 5.0317 2.11038 5.02368 1.985 5.0235C1.7175 5.0235 1.522 5.0755 1.39 5.1835C1.2585 5.291 1.195 5.4425 1.195 5.642C1.195 5.8295 1.2425 5.9695 1.3425 6.065C1.438 6.165 1.5775 6.213 1.7615 6.213ZM4.9665 6.644C4.8945 6.644 4.8465 6.632 4.8145 6.604C4.7825 6.58 4.7545 6.524 4.7305 6.4485L3.793 3.363C3.77476 3.31126 3.76268 3.25756 3.757 3.203C3.757 3.139 3.789 3.103 3.8525 3.103H4.244C4.3195 3.103 4.3715 3.1155 4.399 3.143C4.4315 3.167 4.4555 3.223 4.479 3.299L5.15 5.941L5.7725 3.299C5.7925 3.219 5.8165 3.167 5.848 3.143C5.89597 3.11358 5.95183 3.09962 6.008 3.103H6.327C6.403 3.103 6.455 3.1155 6.487 3.143C6.5185 3.167 6.547 3.223 6.5625 3.299L7.193 5.973L7.8835 3.299C7.9075 3.219 7.9355 3.167 7.9635 3.143C8.00982 3.11359 8.06425 3.09959 8.119 3.103H8.4905C8.554 3.103 8.5905 3.1355 8.5905 3.203C8.5905 3.223 8.586 3.243 8.582 3.267C8.57574 3.30112 8.56636 3.33459 8.554 3.367L7.5925 6.452C7.5685 6.532 7.5405 6.5835 7.5085 6.6075C7.46345 6.6364 7.41045 6.6504 7.357 6.6475H7.0135C6.9385 6.6475 6.886 6.6355 6.8535 6.6075C6.822 6.5795 6.794 6.5275 6.7785 6.4475L6.16 3.8735L5.545 6.4435C5.525 6.5235 5.5015 6.5755 5.47 6.6035C5.4375 6.6315 5.3815 6.6435 5.31 6.6435L4.967 6.644H4.9665ZM10.0945 6.7515C9.887 6.7515 9.6795 6.7275 9.48 6.68C9.2805 6.632 9.125 6.58 9.021 6.52C8.957 6.4845 8.9135 6.4445 8.8975 6.4085C8.88191 6.37321 8.87374 6.33508 8.8735 6.2965V6.093C8.8735 6.0095 8.9055 5.9695 8.965 5.9695C8.989 5.9695 9.013 5.9735 9.037 5.9815C9.061 5.9895 9.097 6.0055 9.137 6.0215C9.2725 6.0815 9.42 6.129 9.576 6.161C9.736 6.193 9.891 6.209 10.051 6.209C10.302 6.209 10.498 6.165 10.6335 6.077C10.6985 6.03776 10.7519 5.98202 10.7883 5.91546C10.8248 5.84889 10.8429 5.77386 10.841 5.698C10.8425 5.64662 10.8337 5.59545 10.8153 5.54748C10.7968 5.4995 10.769 5.45566 10.7335 5.4185C10.6615 5.343 10.5255 5.275 10.33 5.211L9.7515 5.031C9.46 4.9395 9.2445 4.804 9.113 4.6245C8.9843 4.45884 8.91398 4.25528 8.913 4.0455C8.913 3.878 8.9495 3.7305 9.021 3.6025C9.093 3.475 9.1885 3.363 9.3085 3.2755C9.4285 3.1835 9.5635 3.1155 9.7235 3.068C9.8835 3.02 10.051 3 10.2265 3C10.314 3 10.4065 3.004 10.494 3.016C10.5855 3.028 10.669 3.044 10.753 3.06C10.833 3.08 10.909 3.1 10.9805 3.1235C11.0525 3.1475 11.1085 3.1715 11.1485 3.1955C11.1956 3.21922 11.2367 3.25343 11.2685 3.2955C11.2943 3.33433 11.3067 3.38048 11.304 3.427V3.6145C11.304 3.6985 11.272 3.7425 11.212 3.7425C11.1589 3.73641 11.1074 3.72011 11.0605 3.6945C10.8194 3.58799 10.5581 3.53494 10.2945 3.539C10.067 3.539 9.887 3.5745 9.7635 3.6505C9.6395 3.7265 9.576 3.842 9.576 4.0055C9.576 4.1175 9.616 4.2135 9.696 4.289C9.776 4.365 9.923 4.441 10.1345 4.509L10.7015 4.688C10.9885 4.78 11.1965 4.908 11.32 5.0715C11.4435 5.235 11.5035 5.4225 11.5035 5.63C11.5035 5.8015 11.4675 5.9575 11.4 6.093C11.329 6.22963 11.2296 6.34948 11.1085 6.4445C10.9845 6.5445 10.837 6.616 10.6655 6.668C10.4855 6.7235 10.2985 6.7515 10.0945 6.7515Z" fill="var(--fill-0, black)"/>
<path id="Vector_2" fill-rule="evenodd" clip-rule="evenodd" d="M0.189 7.7375C1.881 8.719 3.969 9.314 6.1275 9.314C7.5845 9.314 9.1845 9.0105 10.6575 8.388C10.8775 8.288 11.0645 8.5315 10.849 8.6915C9.536 9.6615 7.628 10.176 5.988 10.176C3.689 10.176 1.618 9.326 0.053 7.913C-0.0705 7.8015 0.041 7.6495 0.189 7.7375ZM11.9545 7.6375C12.098 7.8175 11.9145 9.0505 11.212 9.641C11.1045 9.733 11.0005 9.685 11.0485 9.5655L11.136 9.346C11.3075 8.906 11.537 8.247 11.396 8.0685C11.228 7.8535 10.286 7.965 9.859 8.017C9.7315 8.033 9.7115 7.921 9.8275 7.837C10.5775 7.3105 11.811 7.462 11.9545 7.6375Z" fill="var(--fill-0, #FF9900)"/>
</g>
<defs>
<clipPath id="clip0_1082_681">
<rect width="12" height="12" fill="white"/>
</clipPath>
</defs>
</svg>
