<svg preserveAspectRatio="none" width="100%" height="100%" overflow="visible" style="display: block;" viewBox="0 0 512 512" fill="none" xmlns="http://www.w3.org/2000/svg">
<g id="google-colab-icon 1">
<path id="Vector" d="M94.421 201.472L43.648 150.827C15.7132 178.781 0.0212883 216.684 0.0212883 256.203C0.0212883 295.722 15.7132 333.625 43.648 361.579L94.421 310.784C80.0038 296.251 71.914 276.61 71.914 256.139C71.9136 235.662 80.0031 216.013 94.421 201.472Z" fill="var(--fill-0, #E8710A)"/>
<path id="Vector_2" d="M254.869 150.805C226.935 178.76 211.244 216.662 211.244 256.181C211.244 295.7 226.935 333.602 254.869 361.557L306.603 310.763C297.759 299.648 292.134 286.319 290.342 272.228C288.551 258.137 290.66 243.824 296.441 230.849C302.223 217.875 311.454 206.735 323.129 198.645C334.805 190.555 348.476 185.823 362.655 184.967C381.653 183.82 400.41 189.694 415.36 201.472L466.155 150.677C452.358 136.785 435.959 125.747 417.895 118.195C399.831 110.641 380.457 106.721 360.877 106.657C341.298 106.594 321.898 110.389 303.786 117.825C285.674 125.261 269.204 136.192 255.317 149.995L254.891 150.421V150.805H254.869ZM240.789 373.76L203.136 310.741C188.604 325.152 168.967 333.238 148.501 333.238C128.035 333.238 108.398 325.152 93.866 310.741L43.585 361.6C68.9401 386.946 102.579 402.308 138.339 404.87C174.098 407.433 209.584 397.024 238.294 375.552L240.748 373.76M43.584 150.784L94.379 201.472C108.889 187.216 128.416 179.228 148.758 179.228C169.099 179.228 188.626 187.216 203.136 201.472L239.979 138.347L237.781 136.661C209.094 115.346 173.703 105.046 138.058 107.639C102.413 110.231 68.8855 125.543 43.584 150.784Z" fill="var(--fill-0, #F9AB00)"/>
<path id="Vector_3" d="M466.133 150.805L415.317 201.472C427.168 216.364 433.134 235.092 432.08 254.095C431.026 273.098 423.026 291.052 409.601 304.542C396.176 318.032 378.262 326.12 359.265 327.267C340.267 328.414 321.51 322.54 306.56 310.763L254.827 361.6C275.817 381.754 302.246 395.325 330.856 400.638C359.466 405.952 389.005 402.777 415.832 391.504C442.659 380.23 465.6 361.353 481.826 337.198C498.053 313.043 506.856 284.668 507.149 255.57C507.542 216.557 492.625 178.944 465.6 150.805H466.133Z" fill="var(--fill-0, #E8710A)"/>
</g>
</svg>
