<svg preserveAspectRatio="none" width="100%" height="100%" overflow="visible" style="display: block;" viewBox="0 0 12 12" fill="none" xmlns="http://www.w3.org/2000/svg">
<g id="deepseek-color 1" clip-path="url(#clip0_1082_643)">
<path id="Vector" d="M11.874 2.241C11.747 2.179 11.692 2.2975 11.618 2.358C11.5925 2.3775 11.571 2.403 11.5495 2.426C11.3635 2.6245 11.1465 2.7545 10.863 2.739C10.4485 2.716 10.0945 2.846 9.7815 3.163C9.715 2.772 9.494 2.539 9.158 2.389C8.982 2.311 8.804 2.2335 8.6805 2.064C8.5945 1.9435 8.571 1.809 8.528 1.677C8.5005 1.597 8.473 1.5155 8.3815 1.502C8.2815 1.4865 8.2425 1.57 8.2035 1.64C8.047 1.926 7.9865 2.241 7.9925 2.56C8.006 3.278 8.309 3.85 8.9115 4.2565C8.98 4.303 8.9975 4.35 8.976 4.418C8.935 4.558 8.886 4.694 8.843 4.8345C8.8155 4.924 8.7745 4.943 8.6785 4.9045C8.35413 4.7651 8.05948 4.56482 7.8105 4.3145C7.382 3.9005 6.995 3.4435 6.512 3.0855C6.40009 3.00281 6.28518 2.92426 6.1675 2.85C5.675 2.3715 6.2325 1.9785 6.3615 1.932C6.4965 1.883 6.408 1.716 5.972 1.718C5.536 1.72 5.137 1.8655 4.6285 2.06C4.55294 2.08896 4.47519 2.11186 4.396 2.1285C3.92081 2.03897 3.43482 2.02177 2.9545 2.0775C2.012 2.1825 1.2595 2.6285 0.706 3.389C0.041 4.303 -0.1155 5.342 0.076 6.425C0.2775 7.567 0.8605 8.5125 1.756 9.2515C2.685 10.018 3.7545 10.3935 4.975 10.3215C5.716 10.279 6.5415 10.1795 7.472 9.3915C7.707 9.5085 7.953 9.555 8.362 9.59C8.677 9.6195 8.98 9.575 9.2145 9.526C9.582 9.448 9.5565 9.1075 9.424 9.0455C8.3465 8.5435 8.583 8.748 8.3675 8.5825C8.9155 7.9345 9.7405 7.2615 10.0635 5.081C10.0885 4.9075 10.067 4.7985 10.0635 4.6585C10.0615 4.5735 10.081 4.54 10.1785 4.5305C10.449 4.50244 10.7114 4.42176 10.951 4.293C11.649 3.9115 11.931 3.2855 11.9975 2.5345C12.0075 2.4195 11.9955 2.3015 11.874 2.241ZM5.7905 9C4.746 8.179 4.2395 7.9085 4.0305 7.92C3.8345 7.932 3.87 8.1555 3.913 8.3015C3.958 8.4455 4.0165 8.5445 4.0985 8.671C4.1555 8.7545 4.1945 8.879 4.042 8.9725C3.7055 9.1805 3.121 8.9025 3.0935 8.889C2.413 8.488 1.8435 7.959 1.443 7.2355C1.056 6.539 0.831 5.792 0.794 4.9945C0.784 4.8015 0.8405 4.7335 1.0325 4.6985C1.28456 4.65026 1.54281 4.64368 1.797 4.679C2.863 4.835 3.77 5.3115 4.531 6.066C4.965 6.496 5.2935 7.0095 5.632 7.5115C5.992 8.0445 6.379 8.5525 6.872 8.9685C7.046 9.1145 7.1845 9.2255 7.3175 9.307C6.9165 9.352 6.2475 9.362 5.7905 9ZM6.2905 5.78C6.29041 5.75516 6.29637 5.73068 6.30787 5.70866C6.31936 5.68664 6.33604 5.66775 6.35647 5.65362C6.3769 5.6395 6.40046 5.63056 6.42512 5.62757C6.44978 5.62459 6.47479 5.62765 6.498 5.6365C6.52758 5.64711 6.55311 5.66669 6.57104 5.6925C6.58896 5.71831 6.59839 5.74908 6.598 5.7805C6.59807 5.8008 6.59409 5.82092 6.58631 5.83967C6.57853 5.85842 6.56709 5.87544 6.55266 5.88973C6.53823 5.90401 6.52111 5.91528 6.50228 5.92289C6.48345 5.93049 6.4633 5.93427 6.443 5.934C6.42285 5.93407 6.40289 5.93012 6.38429 5.92238C6.36568 5.91464 6.34881 5.90327 6.33465 5.88892C6.3205 5.87458 6.30935 5.85756 6.30185 5.83886C6.29436 5.82016 6.29017 5.80015 6.2905 5.78ZM7.8455 6.578C7.7455 6.6185 7.646 6.6535 7.5505 6.658C7.40683 6.66301 7.26585 6.61814 7.1515 6.531C7.0145 6.416 6.9165 6.352 6.8755 6.152C6.86136 6.05426 6.86407 5.95482 6.8835 5.858C6.9185 5.6945 6.8795 5.5895 6.764 5.4945C6.6705 5.4165 6.551 5.395 6.42 5.395C6.37515 5.3924 6.33158 5.37902 6.293 5.356C6.238 5.329 6.193 5.261 6.236 5.177C6.25 5.15 6.316 5.084 6.332 5.072C6.51 4.971 6.7155 5.004 6.905 5.08C7.081 5.152 7.214 5.284 7.4055 5.471C7.601 5.6965 7.6365 5.759 7.748 5.928C7.836 6.0605 7.916 6.1965 7.9705 6.352C8.004 6.4495 7.961 6.529 7.8455 6.578Z" fill="var(--fill-0, #4D6BFE)"/>
</g>
<defs>
<clipPath id="clip0_1082_643">
<rect width="12" height="12" fill="white"/>
</clipPath>
</defs>
</svg>
