<svg preserveAspectRatio="none" width="100%" height="100%" overflow="visible" style="display: block;" viewBox="0 0 512 512" fill="none" xmlns="http://www.w3.org/2000/svg">
<g id="vercel-v0-icon 1">
<path id="Vector" fill-rule="evenodd" clip-rule="evenodd" d="M304.043 176H424.022C425.899 176 427.776 176.128 429.568 176.384L304.341 301.611C304.067 299.739 303.932 297.849 303.936 295.957V176H255.936V295.98C255.936 344.236 295.659 383.959 343.915 383.959H463.915V335.959H343.936C342.016 335.959 340.118 335.831 338.283 335.575L463.595 210.24C463.876 212.147 464.019 214.072 464.022 216V335.958H512V215.978C512 167.724 472.278 128 424.022 128H304.042V176H304.043ZM0 160V160.128L163.968 368.938C183.68 394.027 223.978 380.096 223.978 348.182V160H176V306.56L60.928 160H0Z" fill="var(--fill-0, black)"/>
</g>
</svg>
