<svg preserveAspectRatio="none" width="100%" height="100%" overflow="visible" style="display: block;" viewBox="0 0 12 12" fill="none" xmlns="http://www.w3.org/2000/svg">
<g id="googlecloud-color 1" clip-path="url(#clip0_1082_485)">
<path id="Vector" d="M7.9805 3.6635L9.0235 2.6205L9.0935 2.181C7.192 0.4525 4.17 0.6485 2.4565 2.59C1.97794 3.14013 1.63039 3.79164 1.44 4.4955L1.8135 4.443L3.8995 4.099L4.0605 3.934C4.9885 2.915 6.5575 2.778 7.629 3.645L7.9805 3.6635Z" fill="var(--fill-0, #EA4335)"/>
<path id="Vector_2" d="M10.51 4.465C10.2701 3.58195 9.77762 2.78814 9.093 2.181L7.629 3.645C7.93411 3.89435 8.17861 4.20973 8.34405 4.56737C8.50948 4.925 8.59153 5.31553 8.584 5.7095V5.9695C8.75511 5.96943 8.92456 6.00307 9.08267 6.06849C9.24079 6.13391 9.38447 6.22984 9.50551 6.35079C9.62655 6.47173 9.72258 6.61534 9.78812 6.7734C9.85367 6.93146 9.88743 7.10089 9.8875 7.272C9.8875 7.992 9.304 8.5605 8.5845 8.5605H5.9745L5.7185 8.8385V10.4015L5.975 10.6465H8.5845C10.456 10.6615 11.9855 9.1705 11.9995 7.299C12.0039 6.74041 11.8702 6.18938 11.6103 5.69494C11.3503 5.20051 10.9722 4.77799 10.5095 4.465H10.51Z" fill="var(--fill-0, #4285F4)"/>
<path id="Vector_3" d="M3.369 10.6465H5.975V8.5605H3.369C3.1835 8.5605 3.0035 8.5205 2.8345 8.4435L2.4645 8.557L1.4145 9.6L1.323 9.955C1.91108 10.4029 2.62975 10.6458 3.369 10.6465Z" fill="var(--fill-0, #34A853)"/>
<path id="Vector_4" d="M3.369 3.8795C2.66289 3.88364 1.97571 4.10822 1.40345 4.52189C0.831194 4.93556 0.402438 5.51765 0.177079 6.18684C-0.0482791 6.85603 -0.0589835 7.5789 0.146462 8.25447C0.351907 8.93004 0.76324 9.52457 1.323 9.955L2.8345 8.4435C2.64243 8.35669 2.47428 8.22458 2.34449 8.05851C2.2147 7.89244 2.12713 7.69736 2.0893 7.49C2.05147 7.28265 2.0645 7.06921 2.12729 6.868C2.19008 6.66679 2.30074 6.48382 2.44978 6.33478C2.59882 6.18574 2.78179 6.07508 2.983 6.01229C3.18421 5.9495 3.39765 5.93647 3.605 5.9743C3.81236 6.01213 4.00744 6.0997 4.17351 6.22949C4.33958 6.35928 4.47169 6.52743 4.5585 6.7195L6.07 5.208C5.75273 4.79326 5.34383 4.45753 4.87526 4.22706C4.4067 3.9966 3.89117 3.87764 3.369 3.8795Z" fill="var(--fill-0, #FBBC05)"/>
</g>
<defs>
<clipPath id="clip0_1082_485">
<rect width="12" height="12" fill="white"/>
</clipPath>
</defs>
</svg>
