<svg preserveAspectRatio="none" width="100%" height="100%" overflow="visible" style="display: block;" viewBox="0 0 111.6 93.4289" fill="none" xmlns="http://www.w3.org/2000/svg">
<g id="Group">
<path id="Vector" d="M49.8 1.2L8.3 18.4C6 19.4 6 22.6 8.3 23.6L50 40.2C53.7 41.6 57.7 41.6 61.4 40.2L103.2 23.6C105.5 22.6 105.6 19.4 103.2 18.4L61.7 1.2C57.9 -0.4 53.6 -0.4 49.8 1.2Z" fill="var(--fill-0, #FCB400)"/>
<path id="Vector_2" d="M59.5 49.2V90.6C59.5 92.6 61.5 94 63.3 93.2L109.9 75.2C111 74.8 111.6 73.8 111.6 72.6V31.2C111.6 29.2 109.6 27.8 107.8 28.6L61.2 46.6C60.1 47 59.5 48 59.5 49.2Z" fill="var(--fill-0, #18BFFF)"/>
<path id="Vector_3" d="M0 31.3V70.2C0 72.3 2.4 73.6 4.2 72.7L33.3 58.7L34.7 58L0.9 29.4C0.4 29.9 0 30.5 0 31.3Z" fill="var(--fill-0, #F82B60)"/>
<path id="Vector_4" d="M48.4 46.3L4.1 28.7C3.2 28.4 2.3 28.5 1.6 28.9C1.4 29 1.1 29.2 0.8 29.4L34.7 58L48.5 51.4C50.8 50.3 50.6 47.1 48.4 46.3Z" fill="var(--fill-0, #BA1E45)"/>
</g>
</svg>
