<svg preserveAspectRatio="none" width="100%" height="100%" overflow="visible" style="display: block;" viewBox="0 0 12 12" fill="none" xmlns="http://www.w3.org/2000/svg">
<g id="openclaw-color 1" clip-path="url(#clip0_1082_474)">
<path id="Vector" d="M6 1.284C2.835 1.284 1.2525 3.9215 1.2525 6.0315C1.2525 8.1415 2.835 10.2515 4.4175 10.7785V11.8335H5.4725V10.7785C5.4725 10.7785 6 10.9895 6.5275 10.7785V11.8335H7.5825V10.7785C9.165 10.251 10.7475 8.1415 10.7475 6.0315C10.7475 3.9215 9.165 1.284 6 1.284Z" fill="url(#paint0_linear_1082_474)"/>
<path id="Vector_2" d="M1.78 4.9765C0.198 4.449 -0.33 5.504 0.198 6.559C0.7255 7.614 1.78 7.0865 2.308 6.0315C2.624 5.293 2.308 4.9765 1.78 4.9765Z" fill="url(#paint1_linear_1082_474)"/>
<path id="Vector_3" d="M10.22 4.9765C11.802 4.449 12.33 5.504 11.802 6.559C11.2745 7.614 10.22 7.0865 9.692 6.0315C9.376 5.293 9.692 4.9765 10.22 4.9765Z" fill="url(#paint2_linear_1082_474)"/>
<path id="Vector_4" d="M2.7535 0.9375C2.9915 0.795 3.2715 0.821 3.561 0.956C3.8495 1.091 4.1725 1.343 4.5295 1.7C4.55914 1.72964 4.57579 1.76984 4.57579 1.81175C4.57579 1.85366 4.55914 1.89386 4.5295 1.9235C4.49986 1.95314 4.45966 1.96979 4.41775 1.96979C4.37584 1.96979 4.33564 1.95314 4.306 1.9235C3.9595 1.577 3.6665 1.3545 3.4275 1.243C3.19 1.132 3.03 1.1405 2.9165 1.2085C2.88075 1.22677 2.83941 1.23079 2.80081 1.21976C2.76222 1.20872 2.72924 1.18345 2.70855 1.14905C2.68786 1.11466 2.681 1.07369 2.68934 1.03442C2.69768 0.995154 2.72061 0.960516 2.7535 0.9375ZM8.4385 0.9565C8.7285 0.8215 9.0085 0.795 9.2465 0.9375C9.27939 0.960516 9.30232 0.995154 9.31066 1.03442C9.319 1.07369 9.31214 1.11466 9.29145 1.14905C9.27076 1.18345 9.23778 1.20872 9.19919 1.21976C9.16059 1.23079 9.11925 1.22677 9.0835 1.2085C8.97 1.1405 8.81 1.132 8.5725 1.243C8.3335 1.3545 8.0405 1.577 7.6945 1.9235C7.67982 1.93821 7.6624 1.94988 7.64321 1.95785C7.62402 1.96583 7.60345 1.96994 7.58268 1.96997C7.5619 1.96999 7.54132 1.96592 7.52212 1.95799C7.50291 1.95006 7.48546 1.93843 7.47075 1.92375C7.45604 1.90907 7.44437 1.89165 7.4364 1.87246C7.42842 1.85327 7.42431 1.8327 7.42429 1.81193C7.42426 1.79115 7.42833 1.77057 7.43626 1.75137C7.44419 1.73216 7.45583 1.71471 7.4705 1.7C7.8275 1.343 8.1505 1.091 8.4385 0.9565Z" fill="var(--fill-0, #FF4D4D)"/>
<path id="Vector_5" d="M4.4175 4.5545C4.58538 4.5545 4.74639 4.48781 4.8651 4.3691C4.98381 4.25039 5.0505 4.08938 5.0505 3.9215C5.0505 3.75362 4.98381 3.59261 4.8651 3.4739C4.74639 3.35519 4.58538 3.2885 4.4175 3.2885C4.24962 3.2885 4.08861 3.35519 3.9699 3.4739C3.85119 3.59261 3.7845 3.75362 3.7845 3.9215C3.7845 4.08938 3.85119 4.25039 3.9699 4.3691C4.08861 4.48781 4.24962 4.5545 4.4175 4.5545ZM7.5825 4.5545C7.75038 4.5545 7.91139 4.48781 8.0301 4.3691C8.14881 4.25039 8.2155 4.08938 8.2155 3.9215C8.2155 3.75362 8.14881 3.59261 8.0301 3.4739C7.91139 3.35519 7.75038 3.2885 7.5825 3.2885C7.41462 3.2885 7.25361 3.35519 7.1349 3.4739C7.01619 3.59261 6.9495 3.75362 6.9495 3.9215C6.9495 4.08938 7.01619 4.25039 7.1349 4.3691C7.25361 4.48781 7.41462 4.5545 7.5825 4.5545Z" fill="var(--fill-0, #050810)"/>
<path id="Vector_6" d="M4.523 4.08C4.59302 4.08 4.66017 4.05219 4.70968 4.00268C4.75919 3.95317 4.787 3.88602 4.787 3.816C4.787 3.74598 4.75919 3.67883 4.70968 3.62932C4.66017 3.57981 4.59302 3.552 4.523 3.552C4.45305 3.552 4.38596 3.57979 4.3365 3.62925C4.28704 3.67871 4.25925 3.7458 4.25925 3.81575C4.25925 3.8857 4.28704 3.95279 4.3365 4.00225C4.38596 4.05171 4.45305 4.08 4.523 4.08ZM7.688 4.08C7.75795 4.08 7.82504 4.05221 7.8745 4.00275C7.92396 3.95329 7.95175 3.8862 7.95175 3.81625C7.95175 3.7463 7.92396 3.67921 7.8745 3.62975C7.82504 3.58029 7.75795 3.5525 7.688 3.5525C7.61812 3.5525 7.55109 3.58026 7.50168 3.62968C7.45226 3.67909 7.4245 3.74612 7.4245 3.816C7.4245 3.88588 7.45226 3.95291 7.50168 4.00232C7.55109 4.05174 7.61812 4.08 7.688 4.08Z" fill="var(--fill-0, #00E5CC)"/>
</g>
<defs>
<linearGradient id="paint0_linear_1082_474" x1="-0.3295" y1="0.229" x2="13.5115" y2="11.4275" gradientUnits="userSpaceOnUse">
<stop stop-color="#FF4D4D"/>
<stop offset="1" stop-color="#991B1B"/>
</linearGradient>
<linearGradient id="paint1_linear_1082_474" x1="-1.30896e-08" y1="4.836" x2="2.1555" y2="7.4745" gradientUnits="userSpaceOnUse">
<stop stop-color="#FF4D4D"/>
<stop offset="1" stop-color="#991B1B"/>
</linearGradient>
<linearGradient id="paint2_linear_1082_474" x1="9.6925" y1="4.9765" x2="12.1995" y2="7.231" gradientUnits="userSpaceOnUse">
<stop stop-color="#FF4D4D"/>
<stop offset="1" stop-color="#991B1B"/>
</linearGradient>
<clipPath id="clip0_1082_474">
<rect width="12" height="12" fill="white"/>
</clipPath>
</defs>
</svg>
