<svg preserveAspectRatio="none" width="100%" height="100%" overflow="visible" style="display: block;" viewBox="0 0 64.894 64.894" fill="none" xmlns="http://www.w3.org/2000/svg">
<g id="Group">
<path id="Vector" d="M32.447 0C33.127 0 33.72 0.465 33.886 1.125C34.3933 3.14364 35.0618 5.11831 35.885 7.03C38.037 12.03 40.99 16.406 44.739 20.155C48.49 23.905 52.865 26.858 57.864 29.01C59.7761 29.833 61.7511 30.5014 63.77 31.009C64.43 31.175 64.894 31.767 64.894 32.447C64.894 33.127 64.43 33.72 63.769 33.886C61.7504 34.3933 59.7757 35.0618 57.864 35.885C52.864 38.037 48.489 40.99 44.739 44.739C40.99 48.49 38.037 52.865 35.885 57.864C35.0617 59.7761 34.3929 61.7511 33.885 63.77C33.8046 64.0907 33.6195 64.3754 33.3591 64.579C33.0986 64.7826 32.7776 64.8935 32.447 64.894C31.767 64.894 31.175 64.43 31.009 63.769C30.5013 61.7503 29.8325 59.7757 29.009 57.864C26.858 52.864 23.906 48.489 20.155 44.739C16.405 40.99 12.03 38.037 7.03 35.885C5.11823 35.0617 3.14358 34.3929 1.125 33.885C0.804288 33.8049 0.519484 33.62 0.315705 33.3597C0.111926 33.0994 0.000824564 32.7786 0 32.448C0 31.768 0.465 31.176 1.125 31.01C3.14367 30.5024 5.11834 29.8336 7.03 29.01C12.03 26.859 16.406 23.906 20.155 20.156C23.905 16.407 26.858 12.031 29.01 7.031C29.8329 5.11921 30.5014 3.14456 31.009 1.126C31.089 0.804936 31.2739 0.519783 31.5344 0.315792C31.7949 0.111801 32.1161 0.000658011 32.447 0Z" fill="var(--fill-0, black)"/>
<path id="Vector_2" d="M32.447 0C33.127 0 33.72 0.465 33.886 1.125C34.3933 3.14364 35.0618 5.11831 35.885 7.03C38.037 12.03 40.99 16.406 44.739 20.155C48.49 23.905 52.865 26.858 57.864 29.01C59.7761 29.833 61.7511 30.5014 63.77 31.009C64.43 31.175 64.894 31.767 64.894 32.447C64.894 33.127 64.43 33.72 63.769 33.886C61.7504 34.3933 59.7757 35.0618 57.864 35.885C52.864 38.037 48.489 40.99 44.739 44.739C40.99 48.49 38.037 52.865 35.885 57.864C35.0617 59.7761 34.3929 61.7511 33.885 63.77C33.8046 64.0907 33.6195 64.3754 33.3591 64.579C33.0986 64.7826 32.7776 64.8935 32.447 64.894C31.767 64.894 31.175 64.43 31.009 63.769C30.5013 61.7503 29.8325 59.7757 29.009 57.864C26.858 52.864 23.906 48.489 20.155 44.739C16.405 40.99 12.03 38.037 7.03 35.885C5.11823 35.0617 3.14358 34.3929 1.125 33.885C0.804288 33.8049 0.519484 33.62 0.315705 33.3597C0.111926 33.0994 0.000824564 32.7786 0 32.448C0 31.768 0.465 31.176 1.125 31.01C3.14367 30.5024 5.11834 29.8336 7.03 29.01C12.03 26.859 16.406 23.906 20.155 20.156C23.905 16.407 26.858 12.031 29.01 7.031C29.8329 5.11921 30.5014 3.14456 31.009 1.126C31.089 0.804936 31.2739 0.519783 31.5344 0.315792C31.7949 0.111801 32.1161 0.000658011 32.447 0Z" fill="url(#paint0_linear_1082_609)"/>
</g>
<defs>
<linearGradient id="paint0_linear_1082_609" x1="18.447" y1="43.42" x2="52.153" y2="15.004" gradientUnits="userSpaceOnUse">
<stop stop-color="#4893FC"/>
<stop offset="0.27" stop-color="#4893FC"/>
<stop offset="0.777" stop-color="#969DFF"/>
<stop offset="1" stop-color="#BD99FE"/>
</linearGradient>
</defs>
</svg>
