<svg preserveAspectRatio="none" width="100%" height="100%" overflow="visible" style="display: block;" viewBox="0 0 119.968 257.05" fill="none" xmlns="http://www.w3.org/2000/svg">
<g id="Group">
<path id="Vector" d="M82.2839 28.55C71.4839 15.85 62.1839 2.75 60.3839 0.15C60.1839 -0.05 59.8839 -0.05 59.6839 0.15C57.7839 2.85 48.4839 15.85 37.6839 28.65C-54.9161 146.75 52.2839 226.45 52.2839 226.45L53.1839 227.05C53.9839 239.35 55.9839 257.05 55.9839 257.05H59.9839H63.9839C63.9839 257.05 65.9839 239.45 66.7839 227.05L67.6839 226.35C67.6839 226.35 174.884 146.75 82.2839 28.55ZM59.9839 224.65C59.9839 224.65 55.1839 220.55 53.8839 218.45V218.25L59.6839 89.65C59.6839 89.25 60.2839 89.25 60.2839 89.65L65.9839 218.15V218.35C64.6839 220.55 59.9839 224.65 59.9839 224.65Z" fill="var(--fill-0, #001E2B)"/>
</g>
</svg>
