<svg preserveAspectRatio="none" width="100%" height="100%" overflow="visible" style="display: block;" viewBox="0 0 49 49" fill="none" xmlns="http://www.w3.org/2000/svg">
<g id="Group">
<path id="Vector" d="M24.5 48C37.4787 48 48 37.4787 48 24.5C48 11.5213 37.4787 1 24.5 1C11.5213 1 1 11.5213 1 24.5C1 37.4787 11.5213 48 24.5 48Z" fill="var(--fill-0, white)"/>
<path id="Vector_2" d="M21.6 11C21.5 10.8 21.3 10.7 21.1 10.7C21 10.7 20.9 10.7 20.7 10.8C19.4 11.8 17.6 16.2 16.1 21.9H17.4C20 21.9 22.6 22 25.2 22C24.5 19.4 23.9 17.1 23.3 15.3C22.5 12.7 21.9 11.6 21.6 11Z" fill="var(--fill-0, black)"/>
<path id="Vector_3" d="M24.5 0C11 0 0 11 0 24.5C0 38 11 49 24.5 49C38 49 49 38 49 24.5C49 11 38 0 24.5 0ZM42.1 24.9C42.1 25 42.1 25 42.1 24.9L42 25H41.9C41.7 25.1 41.5 25.1 41.3 25.1H29.7C29.8 25.5 29.9 25.9 30 26.4C30.6 29.1 32.3 36.4 34.1 36.4C35.5 36.4 36.2 34.4 37.8 29.9C38.1 29.2 38.3 28.4 38.6 27.5L38.7 27.3C38.8 27 39.1 26.9 39.4 27C39.6 27.1 39.8 27.3 39.8 27.5C39.8 27.6 39.8 27.6 39.8 27.7L39.7 27.9C39.5 28.4 39.4 29.1 39.2 30C38.3 33.9 36.8 39.7 33.2 39.7C30.9 39.7 29.5 35.9 28.9 34.3C27.8 31.3 26.9 28.1 26.1 25H15.5L13.3 32.1C13 32.6 12.3 32.8 11.7 32.4C11.4 32.2 11.2 31.8 11.2 31.5L11.3 30.7C11.6 28.9 12 27 12.4 25.1H7.9C7.1 25 6.5 24.3 6.5 23.4C6.5 22.6 7.1 21.9 7.9 21.7C8.1 21.7 8.3 21.7 8.4 21.7H8.6C10 21.7 11.6 21.7 13.2 21.8C15.6 12.2 18.3 7.4 21.3 7.4C24.5 7.4 27 14.8 28.9 22C32.9 22.1 37.1 22.2 41.2 22.5H41.4C41.5 22.5 41.5 22.5 41.6 22.5C42.3 22.6 42.8 23.3 42.6 24C42.5 24.5 42.4 24.8 42.1 24.9Z" fill="var(--fill-0, black)"/>
</g>
</svg>
