<svg preserveAspectRatio="none" width="100%" height="100%" overflow="visible" style="display: block;" viewBox="0 0 464 481.941" fill="none" xmlns="http://www.w3.org/2000/svg">
<g id="Group">
<path id="Vector" fill-rule="evenodd" clip-rule="evenodd" d="M168.981 89.515H92.33C77.0291 89.5153 62.3547 95.5922 51.5334 106.41C40.7121 117.227 34.6298 131.899 34.624 147.2V389.589C34.624 404.894 40.7037 419.572 51.5256 430.394C62.3476 441.216 77.0253 447.296 92.33 447.296H334.741C350.046 447.296 364.724 441.216 375.546 430.394C386.368 419.572 392.448 404.894 392.448 389.589V288.128L427.072 264.384V389.611C427.067 414.097 417.337 437.579 400.023 454.893C382.709 472.207 359.227 481.936 334.741 481.941H92.33C67.8441 481.936 44.3625 472.207 27.0484 454.893C9.73425 437.578 0.00503923 414.097 1.99137e-06 389.611V147.221C-0.00251642 135.094 2.3837 123.086 7.0224 111.881C11.6611 100.677 18.4614 90.4961 27.035 81.92C35.609 73.3441 45.7884 66.5413 56.9918 61.9C68.1952 57.2587 80.2032 54.8699 92.33 54.87H189.29L168.981 89.515Z" fill="var(--fill-0, black)"/>
<path id="Vector_2" fill-rule="evenodd" clip-rule="evenodd" d="M337.493 0C340.586 0 343.21 2.219 343.872 5.248C349.93 33.4144 364.007 59.2269 384.405 79.573C404.755 99.9826 430.575 114.067 458.752 120.128C461.781 120.789 464 123.413 464 126.528C463.981 128.027 463.451 129.475 462.496 130.631C461.542 131.787 460.221 132.583 458.752 132.885C430.583 138.95 404.77 153.034 384.426 173.44C363.751 194.05 349.57 220.269 343.637 248.853C343.349 250.275 342.582 251.555 341.464 252.48C340.346 253.404 338.944 253.916 337.493 253.931C336.042 253.916 334.64 253.404 333.522 252.48C332.404 251.555 331.637 250.275 331.349 248.853C325.416 220.269 311.235 194.05 290.56 173.44C269.95 152.764 243.731 138.583 215.146 132.651C213.724 132.362 212.445 131.595 211.521 130.477C210.597 129.359 210.084 127.957 210.069 126.507C210.069 123.52 212.202 120.96 215.146 120.363C243.731 114.43 269.949 100.249 290.56 79.573C310.964 59.2286 325.049 33.4162 331.114 5.248C331.417 3.77572 332.215 2.45174 333.376 1.49677C334.537 0.541796 335.99 0.01352 337.493 0Z" fill="var(--fill-0, black)"/>
</g>
</svg>
