<svg preserveAspectRatio="none" width="100%" height="100%" overflow="visible" style="display: block;" viewBox="0 0 12 12" fill="none" xmlns="http://www.w3.org/2000/svg">
<g id="mistral-color 1">
<path id="Vector" d="M1.714 1.7H3.4285V3.414H1.714V1.7ZM8.571 1.7H10.286V3.414H8.571V1.7Z" fill="var(--fill-0, #FFD700)"/>
<path id="Vector_2" d="M1.714 3.414H5.1425V5.1285H1.7145L1.714 3.414ZM6.857 3.414H10.2855V5.1285H6.857V3.414Z" fill="var(--fill-0, #FFAF00)"/>
<path id="Vector_3" d="M1.714 5.129H10.286V6.843H1.714V5.129Z" fill="var(--fill-0, #FF8205)"/>
<path id="Vector_4" d="M1.714 6.843H3.4285V8.557H1.714V6.843ZM5.143 6.843H6.8575V8.557H5.143V6.843ZM8.571 6.843H10.286V8.557H8.571V6.843Z" fill="var(--fill-0, #FA500F)"/>
<path id="Vector_5" d="M0 8.557H5.143V10.2715H0V8.557ZM6.857 8.557H12V10.2715H6.857V8.557Z" fill="var(--fill-0, #E10500)"/>
</g>
</svg>
