<svg preserveAspectRatio="none" width="100%" height="100%" overflow="visible" style="display: block;" viewBox="0 0 12 12" fill="none" xmlns="http://www.w3.org/2000/svg">
<g id="qwen-color 1" clip-path="url(#clip0_1082_454)">
<path id="Vector" d="M6.302 0.67C6.4985 1.015 6.694 1.361 6.889 1.7075C6.89688 1.72136 6.9083 1.73287 6.9221 1.74087C6.93589 1.74886 6.95156 1.75305 6.9675 1.753H9.7435C9.8305 1.753 9.9045 1.808 9.9665 1.9165L10.6935 3.2015C10.7885 3.37 10.8135 3.4405 10.7055 3.62C10.5755 3.835 10.449 4.052 10.3255 4.27L10.142 4.599C10.089 4.697 10.0305 4.739 10.122 4.855L11.448 7.1735C11.534 7.324 11.5035 7.4205 11.4265 7.5585C11.208 7.951 10.9855 8.3405 10.759 8.7285C10.6795 8.8645 10.583 8.916 10.419 8.9135C10.0305 8.9055 9.643 8.9085 9.2555 8.9215C9.24719 8.92193 9.23913 8.92444 9.23205 8.92881C9.22497 8.93318 9.21911 8.93927 9.215 8.9465C8.76792 9.73863 8.31708 10.5286 7.8625 11.3165C7.778 11.463 7.6725 11.498 7.5 11.4985C7.0015 11.5 6.499 11.5005 5.9915 11.4995C5.94425 11.4994 5.89787 11.4868 5.85705 11.463C5.81623 11.4392 5.7824 11.405 5.759 11.364L5.0915 10.2025C5.08762 10.1949 5.08165 10.1886 5.07431 10.1842C5.06696 10.1799 5.05853 10.1777 5.05 10.178H2.491C2.3485 10.193 2.2145 10.1775 2.0885 10.132L1.287 8.747C1.2633 8.70599 1.25073 8.6595 1.25056 8.61213C1.25038 8.56477 1.2626 8.51818 1.286 8.477L1.8895 7.417C1.8981 7.40201 1.90262 7.38503 1.90262 7.36775C1.90262 7.35047 1.8981 7.33349 1.8895 7.3185C1.57513 6.77424 1.26263 6.2289 0.952 5.6825L0.557 4.985C0.477 4.83 0.4705 4.737 0.6045 4.5025C0.837 4.096 1.068 3.69 1.298 3.2845C1.364 3.1675 1.45 3.1175 1.59 3.117C2.0215 3.11518 2.453 3.11502 2.8845 3.1165C2.8954 3.11642 2.90608 3.11346 2.91548 3.10793C2.92487 3.1024 2.93264 3.09449 2.938 3.085L4.341 0.6375C4.36226 0.600267 4.39296 0.569293 4.43 0.5477C4.46704 0.526107 4.50912 0.514656 4.552 0.5145C4.814 0.514 5.0785 0.5145 5.3435 0.5115L5.852 0.5C6.0225 0.4985 6.214 0.516 6.302 0.67ZM4.586 0.8715C4.58073 0.871497 4.57555 0.872881 4.57099 0.875514C4.56643 0.878148 4.56263 0.881937 4.56 0.8865L3.127 3.394C3.12012 3.40582 3.11027 3.41563 3.09843 3.42247C3.08659 3.42931 3.07317 3.43294 3.0595 3.433H1.6265C1.5985 3.433 1.5915 3.4455 1.606 3.47L4.511 8.548C4.5235 8.569 4.5175 8.579 4.494 8.5795L3.0965 8.587C3.07607 8.58632 3.05586 8.5914 3.03818 8.60165C3.0205 8.61191 3.00605 8.62693 2.9965 8.645L2.3365 9.8C2.3145 9.839 2.326 9.859 2.3705 9.859L5.2285 9.863C5.2515 9.863 5.2685 9.873 5.2805 9.8935L5.982 11.1205C6.005 11.161 6.028 11.1615 6.0515 11.1205L8.5545 6.7405L8.946 6.0495C8.94839 6.04523 8.95187 6.04168 8.95609 6.0392C8.96031 6.03673 8.96511 6.03543 8.97 6.03543C8.97489 6.03543 8.97969 6.03673 8.98391 6.0392C8.98813 6.04168 8.99161 6.04523 8.994 6.0495L9.706 7.3145C9.71135 7.32397 9.71912 7.33183 9.72853 7.33728C9.73794 7.34273 9.74863 7.34557 9.7595 7.3455L11.141 7.3355C11.1445 7.33553 11.148 7.33462 11.1511 7.33287C11.1542 7.33111 11.1567 7.32857 11.1585 7.3255C11.1602 7.32244 11.1611 7.319 11.1611 7.3155C11.1611 7.312 11.1602 7.30856 11.1585 7.3055L9.7085 4.7625C9.70328 4.754 9.70052 4.74422 9.70052 4.73425C9.70052 4.72428 9.70328 4.7145 9.7085 4.706L9.855 4.4525L10.415 3.464C10.427 3.4435 10.421 3.433 10.3975 3.433H4.6C4.5705 3.433 4.5635 3.42 4.5785 3.3945L5.2955 2.142C5.30087 2.13346 5.30372 2.12359 5.30372 2.1135C5.30372 2.10341 5.30087 2.09354 5.2955 2.085L4.6125 0.887C4.60989 0.882269 4.60605 0.878332 4.60138 0.875603C4.59672 0.872875 4.5914 0.871457 4.586 0.8715ZM7.731 4.8815C7.754 4.8815 7.76 4.8915 7.748 4.9115L7.332 5.644L6.0255 7.9365C6.02305 7.94096 6.01942 7.94467 6.01502 7.94722C6.01061 7.94978 6.00559 7.95109 6.0005 7.951C5.99543 7.95098 5.99045 7.94963 5.98607 7.94709C5.98168 7.94454 5.97804 7.94089 5.9755 7.9365L4.249 4.9205C4.239 4.9035 4.244 4.8945 4.263 4.8935L4.371 4.8875L7.732 4.8815H7.731Z" fill="url(#paint0_linear_1082_454)"/>
</g>
<defs>
<linearGradient id="paint0_linear_1082_454" x1="0.499756" y1="0.499917" x2="1100.51" y2="0.499917" gradientUnits="userSpaceOnUse">
<stop stop-color="#6336E7" stop-opacity="0.84"/>
<stop offset="1" stop-color="#6F69F7" stop-opacity="0.84"/>
</linearGradient>
<clipPath id="clip0_1082_454">
<rect width="12" height="12" fill="white"/>
</clipPath>
</defs>
</svg>
