<svg preserveAspectRatio="none" width="100%" height="100%" overflow="visible" style="display: block;" viewBox="0 0 400 442.8" fill="none" xmlns="http://www.w3.org/2000/svg">
<g id="google-analytics-icon 1" clip-path="url(#clip0_1082_410)">
<path id="Vector" fill-rule="evenodd" clip-rule="evenodd" d="M399.997 387.39C400.162 417.792 375.644 442.547 345.259 442.71C343.001 442.729 340.722 442.601 338.483 442.328C310.285 438.156 289.629 413.619 290.32 385.13V57.5763C289.646 29.05 310.358 4.51431 338.573 0.378975C368.756 -3.15459 396.098 18.448 399.632 48.6321C399.887 50.8545 400.015 53.077 399.996 55.3167V387.388L399.997 387.39Z" fill="var(--fill-0, #F9AB00)"/>
<path id="Vector_2" fill-rule="evenodd" clip-rule="evenodd" d="M54.8474 333.107C85.1404 333.107 109.695 357.661 109.695 387.954C109.695 418.247 85.1404 442.802 54.8474 442.802C24.5543 442.802 0 418.247 0 387.954C0 357.661 24.5543 333.107 54.8474 333.107ZM199.152 166.888C168.715 168.564 145.106 194.084 145.817 224.559V371.869C145.817 411.852 163.413 436.116 189.188 441.289C218.935 447.318 247.916 428.1 253.945 398.354C254.692 394.711 255.056 391.014 255.037 387.298V222.009C255.092 191.607 230.502 166.924 200.1 166.871C199.79 166.871 199.462 166.871 199.152 166.89V166.888Z" fill="var(--fill-0, #E37400)"/>
</g>
<defs>
<clipPath id="clip0_1082_410">
<rect width="400" height="442.8" fill="white"/>
</clipPath>
</defs>
</svg>
