<svg preserveAspectRatio="none" width="100%" height="100%" overflow="visible" style="display: block;" viewBox="0 0 12 12" fill="none" xmlns="http://www.w3.org/2000/svg">
<g id="searchapi 1" clip-path="url(#clip0_1082_646)">
<path id="Vector" fill-rule="evenodd" clip-rule="evenodd" d="M6.411 11.0665H5.59V7.075H6.4115V11.066L6.411 11.0665ZM4.767 8.8385C4.76634 9.25252 4.60154 9.64938 4.30874 9.94209C4.01594 10.2348 3.61902 10.3995 3.205 10.4H2.795V9.5775H3.2055C3.6135 9.5775 3.9455 9.2455 3.9455 8.8375V6.6325H4.7675V8.8375L4.767 8.8385ZM8.0545 8.8385C8.0545 9.246 8.3865 9.5785 8.7945 9.5785H9.205V10.4H8.7945C8.38044 10.3995 7.9835 10.2347 7.69076 9.94189C7.39802 9.64905 7.2334 9.25206 7.233 8.838V6.6325H8.0545V8.8375V8.8385ZM6 0.5C8.04 0.5 9.698 2.159 9.698 4.198V7.753C9.70504 7.94455 9.78609 8.12591 9.9241 8.25894C10.0621 8.39196 10.2463 8.46629 10.438 8.46629C10.6297 8.46629 10.8139 8.39196 10.9519 8.25894C11.0899 8.12591 11.171 7.94455 11.178 7.753V5.78H12V7.7535C12 8.6145 11.3 9.315 10.4385 9.315C10.0244 9.3146 9.62745 9.14998 9.33461 8.85724C9.04178 8.5645 8.87703 8.16756 8.8765 7.7535V4.1985C8.87571 3.4358 8.57241 2.70456 8.03315 2.16521C7.49388 1.62585 6.7627 1.32243 6 1.3215C5.23748 1.32243 4.50644 1.62571 3.96721 2.16485C3.42797 2.70399 3.12456 3.43498 3.1235 4.1975V7.7525C3.12297 8.16669 2.95816 8.56376 2.66524 8.85659C2.37231 9.14942 1.97519 9.3141 1.561 9.3145C1.14716 9.31397 0.75042 9.14934 0.457791 8.85671C0.165161 8.56408 0.000529208 8.16734 0 7.7535L0 5.78H0.822V7.7535C0.822 8.161 1.1535 8.4935 1.561 8.4935C1.9695 8.4935 2.301 8.161 2.301 7.7535V4.1985C2.3015 2.1585 3.961 0.5 6 0.5ZM5.413 5.78H4.4705V4.283H5.413V5.78ZM7.529 4.2825V5.78H6.5875V4.283H7.529V4.2825Z" fill="var(--fill-0, black)"/>
</g>
<defs>
<clipPath id="clip0_1082_646">
<rect width="12" height="12" fill="white"/>
</clipPath>
</defs>
</svg>
