<svg preserveAspectRatio="none" width="100%" height="100%" overflow="visible" style="display: block;" viewBox="0 0 377.481 474.122" fill="none" xmlns="http://www.w3.org/2000/svg">
<g id="Group">
<path id="Vector" d="M118.229 460.493C138.068 468.478 159.59 473.216 182.188 474.005C212.772 475.074 241.855 468.75 267.855 456.739C236.677 444.489 208.44 426.575 184.341 404.303C168.719 429.314 145.615 449.071 118.229 460.493Z" fill="var(--fill-0, #FF9100)"/>
<path id="Vector_2" d="M184.338 404.311C129.327 353.433 95.9553 279.795 98.7753 199.026C98.8673 196.404 99.0053 193.782 99.1683 191.162C74.737 184.828 49.0618 185.097 24.7683 191.94C10.0823 217.664 1.22134 247.179 0.117342 278.793C-2.73366 360.381 46.6423 431.671 118.226 460.501C145.612 449.078 168.716 429.346 184.338 404.311Z" fill="var(--fill-0, #FFC400)"/>
<path id="Vector_3" d="M184.339 404.308C197.129 383.84 204.883 359.845 205.786 333.991C208.16 265.985 162.443 207.484 99.1683 191.159C99.0063 193.78 98.8683 196.401 98.7763 199.024C95.9563 279.792 129.328 353.431 184.339 404.308Z" fill="var(--fill-0, #FF9100)"/>
<path id="Vector_4" d="M198.71 0C162.673 28.87 134.216 66.939 116.998 110.792C107.141 135.911 100.947 162.893 99.1393 191.176C162.413 207.501 208.131 266.002 205.757 334.007C204.854 359.861 197.077 383.833 184.309 404.325C208.642 426.848 236.965 444.631 267.823 456.76C330.404 427.832 374.805 365.585 377.376 291.958C379.042 244.256 360.714 201.741 334.816 165.855C307.466 127.901 198.71 0 198.71 0Z" fill="var(--fill-0, #DD2C00)"/>
</g>
</svg>
