<svg preserveAspectRatio="none" width="100%" height="100%" overflow="visible" style="display: block;" viewBox="0 0 12 12" fill="none" xmlns="http://www.w3.org/2000/svg">
<g id="sora-color 1" clip-path="url(#clip0_1082_613)">
<path id="Vector" d="M9.7515 5.56101e-08H2.248C1.65179 5.56101e-08 1.08001 0.236842 0.658424 0.658424C0.236842 1.08001 5.56101e-08 1.65179 5.56101e-08 2.248V9.7515C-6.56147e-05 10.0468 0.0580322 10.3391 0.170975 10.6119C0.283919 10.8847 0.449495 11.1326 0.658247 11.3414C0.867 11.5502 1.11484 11.7158 1.38761 11.8288C1.66038 11.9418 1.95275 12 2.248 12H9.7515C10.0468 12.0001 10.3392 11.942 10.612 11.829C10.8849 11.716 11.1328 11.5504 11.3416 11.3416C11.5504 11.1328 11.716 10.8849 11.829 10.612C11.942 10.3392 12.0001 10.0468 12 9.7515V2.248C12 1.95275 11.9418 1.66038 11.8288 1.38761C11.7158 1.11484 11.5502 0.867 11.3414 0.658247C11.1326 0.449495 10.8847 0.283919 10.6119 0.170975C10.3391 0.0580322 10.0468 -6.56147e-05 9.7515 5.56101e-08Z" fill="url(#paint0_linear_1082_613)"/>
<path id="Vector_2" d="M4.863 5.68C4.90358 5.68 4.94249 5.69612 4.97119 5.72481C4.99988 5.75351 5.016 5.79242 5.016 5.833C5.016 5.87358 4.99988 5.91249 4.97119 5.94119C4.94249 5.96988 4.90358 5.986 4.863 5.986C4.82242 5.986 4.78351 5.96988 4.75481 5.94119C4.72612 5.91249 4.71 5.87358 4.71 5.833C4.71 5.79242 4.72612 5.75351 4.75481 5.72481C4.78351 5.69612 4.82242 5.68 4.863 5.68Z" fill="url(#paint1_linear_1082_613)"/>
<path id="Vector_3" fill-rule="evenodd" clip-rule="evenodd" d="M4.204 4.7805C4.2205 4.776 4.2365 4.7815 4.252 4.797C4.3245 4.872 4.398 4.946 4.472 5.0205L4.4825 5.0285C4.4875 5.031 4.491 5.033 4.4945 5.0335L4.7985 5.112C4.8195 5.117 4.8325 5.1285 4.837 5.145C4.8415 5.1625 4.836 5.1785 4.8205 5.194L4.597 5.4135C4.59384 5.41678 4.59114 5.42048 4.589 5.4245C4.58682 5.42827 4.58514 5.4323 4.584 5.4365L4.5055 5.74C4.5005 5.761 4.489 5.774 4.472 5.7785C4.455 5.7835 4.439 5.7775 4.424 5.762L4.204 5.539C4.19733 5.53272 4.18928 5.5281 4.1805 5.5255C4.0795 5.499 3.978 5.473 3.877 5.4475C3.856 5.4425 3.843 5.431 3.8385 5.4135C3.8335 5.397 3.8395 5.3805 3.855 5.3655C3.93 5.2925 4.004 5.2195 4.0785 5.1455C4.08166 5.1424 4.08435 5.13887 4.0865 5.135C4.08872 5.13108 4.0904 5.12687 4.0915 5.1225L4.17 4.819C4.175 4.798 4.1865 4.785 4.204 4.7805Z" fill="url(#paint2_linear_1082_613)"/>
<path id="Vector_4" d="M7.435 4.991C7.45586 4.98981 7.47675 4.99289 7.49638 5.00005C7.51601 5.00721 7.53397 5.01831 7.54916 5.03266C7.56435 5.047 7.57645 5.0643 7.58472 5.08349C7.59299 5.10268 7.59726 5.12335 7.59726 5.14425C7.59726 5.16515 7.59299 5.18582 7.58472 5.20501C7.57645 5.2242 7.56435 5.2415 7.54916 5.25584C7.53397 5.27019 7.51601 5.28129 7.49638 5.28845C7.47675 5.29561 7.45586 5.29869 7.435 5.2975C7.39587 5.29526 7.35908 5.27814 7.33216 5.24965C7.30525 5.22116 7.29026 5.18344 7.29026 5.14425C7.29026 5.10506 7.30525 5.06735 7.33216 5.03885C7.35908 5.01036 7.39587 4.99324 7.435 4.991Z" fill="url(#paint3_linear_1082_613)"/>
<path id="Vector_5" fill-rule="evenodd" clip-rule="evenodd" d="M6.7765 4.0935C6.794 4.0885 6.81 4.0945 6.825 4.1095L7.044 4.3335C7.05058 4.33953 7.05844 4.34398 7.067 4.3465L7.37 4.4255C7.391 4.4305 7.4035 4.442 7.4085 4.4595C7.413 4.476 7.4075 4.492 7.3915 4.507L7.168 4.726C7.16187 4.73259 7.15726 4.74044 7.1545 4.749L7.076 5.0515C7.071 5.0725 7.059 5.0855 7.042 5.09C7.025 5.0945 7.009 5.089 6.994 5.0735C6.9215 4.9985 6.8485 4.924 6.7755 4.85C6.7723 4.84661 6.76858 4.84375 6.7645 4.8415C6.76061 4.83922 6.75639 4.83753 6.752 4.8365L6.4495 4.7575C6.4285 4.7525 6.4155 4.741 6.411 4.724C6.4065 4.707 6.412 4.691 6.4275 4.676C6.5025 4.6035 6.5765 4.5305 6.651 4.4575C6.65437 4.45428 6.65723 4.45057 6.6595 4.4465C6.66172 4.44258 6.6634 4.43837 6.6645 4.434L6.7435 4.1315C6.7485 4.1105 6.76 4.0975 6.7765 4.0935Z" fill="url(#paint4_linear_1082_613)"/>
<path id="Vector_6" fill-rule="evenodd" clip-rule="evenodd" d="M4.5325 1.6715C4.89367 1.52309 5.2868 1.46956 5.6745 1.516C6.1745 1.573 6.62 1.786 7.011 2.153C7.0162 2.15806 7.02259 2.16172 7.02959 2.16364C7.03658 2.16557 7.04395 2.16569 7.051 2.164C7.55932 2.03269 8.09742 2.08127 8.574 2.3015L8.5975 2.312L8.6555 2.341C9.15432 2.59369 9.54345 3.02017 9.7495 3.54C9.854 3.795 9.9065 4.0605 9.9075 4.3375C9.915 4.545 9.8925 4.749 9.84 4.9495C9.8372 4.95963 9.83711 4.97033 9.83974 4.98051C9.84238 4.99069 9.84764 4.99999 9.855 5.0075C10.152 5.3105 10.349 5.672 10.4465 6.0915C10.591 6.8045 10.443 7.4465 10.003 8.019L9.935 8.102C9.64356 8.43544 9.26106 8.67648 8.8345 8.7955C8.82522 8.79822 8.81674 8.80314 8.80978 8.80984C8.80281 8.81655 8.79757 8.82483 8.7945 8.834C8.699 9.1095 8.6025 9.3455 8.424 9.581C7.974 10.174 7.3135 10.504 6.5685 10.5C5.975 10.497 5.4485 10.28 4.99 9.849C4.98307 9.8424 4.97449 9.8378 4.96516 9.83569C4.95582 9.83358 4.94609 9.83403 4.937 9.837C4.743 9.8995 4.547 9.909 4.3355 9.9065C3.99762 9.90373 3.66484 9.82387 3.3625 9.673C3.04584 9.51601 2.7702 9.28727 2.5575 9.005C2.4815 8.9045 2.406 8.8095 2.351 8.697C2.27522 8.54263 2.21331 8.38183 2.166 8.2165C2.06613 7.84012 2.0639 7.44449 2.1595 7.067C2.16242 7.05814 2.16328 7.04874 2.162 7.0395C2.16032 7.03021 2.15557 7.02176 2.1485 7.0155C1.91734 6.78178 1.74064 6.4999 1.631 6.19C1.55835 5.99911 1.51616 5.79799 1.506 5.594C1.48779 5.32529 1.51157 5.05538 1.5765 4.794C1.745 4.238 2.0675 3.8015 2.543 3.4845C2.649 3.4145 2.749 3.3595 2.8435 3.32C2.951 3.275 3.0585 3.2375 3.1665 3.206C3.1742 3.20373 3.18121 3.19957 3.18689 3.19389C3.19257 3.18822 3.19673 3.1812 3.199 3.1735C3.28079 2.87888 3.42165 2.60398 3.613 2.3655C3.85464 2.05887 4.17137 1.81982 4.5325 1.6715ZM4.894 4.539C4.4615 4.232 3.87 4.384 3.6525 4.867C3.5395 5.117 3.5175 5.38 3.586 5.657L3.64 5.877L3.7375 6.233C3.7775 6.433 3.8535 6.6155 3.967 6.781L3.978 6.797C4.038 6.868 4.104 6.933 4.175 6.9915C4.6945 7.4185 5.403 7.1335 5.5445 6.4955L5.563 6.4155L5.568 6.3855C5.59 6.2355 5.583 6.0885 5.548 5.9445C5.48525 5.69019 5.4169 5.43729 5.343 5.186C5.2615 4.909 5.112 4.6935 4.894 4.539ZM7.558 3.9215C7.235 3.6215 6.7365 3.61 6.4155 3.912C6.2905 4.0295 6.203 4.188 6.154 4.3865C6.10519 4.58792 6.10519 4.79808 6.154 4.9995L6.159 5.0195L6.18 5.0875C6.2275 5.245 6.2715 5.4 6.312 5.5525C6.3545 5.711 6.388 5.8175 6.414 5.8715C6.629 6.324 7.0965 6.6495 7.605 6.442C8.078 6.249 8.22 5.6885 8.113 5.2345C8.09698 5.1658 8.07948 5.09745 8.0605 5.0295C7.9855 4.738 7.9325 4.5415 7.9 4.44C7.83327 4.24025 7.71535 4.06148 7.558 3.9215Z" fill="url(#paint5_linear_1082_613)"/>
</g>
<defs>
<linearGradient id="paint0_linear_1082_613" x1="6" y1="5.56101e-08" x2="6" y2="12" gradientUnits="userSpaceOnUse">
<stop stop-color="#012659"/>
<stop offset="1" stop-color="#0968DA"/>
</linearGradient>
<linearGradient id="paint1_linear_1082_613" x1="4.9295" y1="1.5" x2="7.1095" y2="10.5085" gradientUnits="userSpaceOnUse">
<stop stop-color="white"/>
<stop offset="1" stop-color="#6BB6FE"/>
</linearGradient>
<linearGradient id="paint2_linear_1082_613" x1="4.9295" y1="1.5" x2="7.1095" y2="10.5085" gradientUnits="userSpaceOnUse">
<stop stop-color="white"/>
<stop offset="1" stop-color="#6BB6FE"/>
</linearGradient>
<linearGradient id="paint3_linear_1082_613" x1="4.9295" y1="1.5" x2="7.1095" y2="10.5085" gradientUnits="userSpaceOnUse">
<stop stop-color="white"/>
<stop offset="1" stop-color="#6BB6FE"/>
</linearGradient>
<linearGradient id="paint4_linear_1082_613" x1="4.9295" y1="1.5" x2="7.1095" y2="10.5085" gradientUnits="userSpaceOnUse">
<stop stop-color="white"/>
<stop offset="1" stop-color="#6BB6FE"/>
</linearGradient>
<linearGradient id="paint5_linear_1082_613" x1="4.9295" y1="1.5" x2="7.1095" y2="10.5085" gradientUnits="userSpaceOnUse">
<stop stop-color="white"/>
<stop offset="1" stop-color="#6BB6FE"/>
</linearGradient>
<clipPath id="clip0_1082_613">
<rect width="12" height="12" fill="white"/>
</clipPath>
</defs>
</svg>
