<svg preserveAspectRatio="none" width="100%" height="100%" overflow="visible" style="display: block;" viewBox="0 0 49.63 47.36" fill="none" xmlns="http://www.w3.org/2000/svg">
<g id="Group">
<path id="Vector" d="M14.41 19.54H20.72C19.14 18.55 18.55 17.17 17.76 14.61L15.39 5.83C14.31 1.88 13.42 0 9.08 0H0.01V2.37H1.3C3.96 2.37 4.26 3.36 5.05 6.32L7.12 14.02C8.2 17.76 9.88 19.54 14.41 19.54ZM29.01 19.54H35.32C39.86 19.54 41.43 17.76 42.52 14.02L44.59 6.32C45.38 3.36 45.77 2.37 48.34 2.37H49.63V0H40.65C36.21 0 35.32 1.78 34.33 5.82L31.96 14.6C31.19 17.26 30.59 18.55 29.01 19.54ZM20.72 27.82H29.01V19.53H20.72V27.82ZM0.01 47.36H9.08C13.42 47.36 14.31 45.48 15.39 41.54L17.76 32.76C18.55 30.2 19.14 28.81 20.72 27.83H14.41C9.87 27.83 8.19 29.61 7.11 33.35L5.04 41.05C4.24 44 3.95 44.99 1.29 44.99H0L0.01 47.36ZM40.65 47.36H49.63V44.99H48.34C45.78 44.99 45.38 44 44.59 41.04L42.52 33.34C41.44 29.59 39.86 27.82 35.32 27.82H29.02C30.6 28.81 31.17 30.09 31.96 32.75L34.33 41.53C35.31 45.58 36.2 47.36 40.65 47.36Z" fill="var(--fill-0, #1B0B3B)"/>
</g>
</svg>
