<svg preserveAspectRatio="none" width="100%" height="100%" overflow="visible" style="display: block;" viewBox="0 0 12 12" fill="none" xmlns="http://www.w3.org/2000/svg">
<g id="vertexai-color 1" clip-path="url(#clip0_1082_685)">
<path id="Vector" d="M5.9975 10.108C5.74654 10.108 5.50586 10.2077 5.3284 10.3851C5.15094 10.5626 5.05125 10.8033 5.05125 11.0542C5.05125 11.3052 5.15094 11.5459 5.3284 11.7233C5.50586 11.9008 5.74654 12.0005 5.9975 12.0005C6.24846 12.0005 6.48914 11.9008 6.6666 11.7233C6.84406 11.5459 6.94375 11.3052 6.94375 11.0542C6.94375 10.8033 6.84406 10.5626 6.6666 10.3851C6.48914 10.2077 6.24846 10.108 5.9975 10.108ZM5.9975 11.511C5.90555 11.511 5.81569 11.4836 5.73933 11.4324C5.66297 11.3812 5.60358 11.3084 5.5687 11.2233C5.53381 11.1383 5.52502 11.0447 5.54344 10.9547C5.56186 10.8646 5.60665 10.782 5.67212 10.7175C5.7376 10.6529 5.82079 10.6093 5.91113 10.5921C6.00146 10.575 6.09485 10.5851 6.17942 10.6212C6.264 10.6573 6.33593 10.7177 6.38607 10.7947C6.43621 10.8718 6.46229 10.9621 6.461 11.054C6.46101 11.1146 6.44897 11.1745 6.4256 11.2304C6.40223 11.2863 6.36798 11.3369 6.32486 11.3795C6.28173 11.422 6.23058 11.4555 6.17438 11.4781C6.11818 11.5007 6.05806 11.5119 5.9975 11.511Z" fill="var(--fill-0, #4285F4)"/>
<path id="Vector_2" fill-rule="evenodd" clip-rule="evenodd" d="M10.8435 7.072C10.962 7.091 11.0695 7.152 11.146 7.244C11.2143 7.34422 11.2428 7.46623 11.2262 7.58634C11.2096 7.70645 11.1489 7.8161 11.056 7.894L6.936 10.935C6.91512 10.77 6.85112 10.6134 6.75043 10.481C6.64974 10.3487 6.51594 10.2452 6.3625 10.181L10.5025 7.141C10.6041 7.07754 10.7252 7.05303 10.8435 7.072Z" fill="var(--fill-0, #669DF6)"/>
<path id="Vector_3" fill-rule="evenodd" clip-rule="evenodd" d="M5.061 10.921L0.9525 7.888C0.856715 7.81395 0.792745 7.70619 0.77361 7.58664C0.754474 7.46709 0.781612 7.34475 0.8495 7.2445C0.925347 7.15124 1.03289 7.08918 1.15159 7.07018C1.27029 7.05118 1.39183 7.07657 1.493 7.1415L5.633 10.1815C5.48179 10.2447 5.34959 10.3461 5.24932 10.4757C5.14906 10.6053 5.08416 10.7588 5.061 10.921Z" fill="var(--fill-0, #AECBFA)"/>
<path id="Vector_4" d="M2.1365 2.2375C2.00906 2.23582 1.88731 2.18444 1.79718 2.09432C1.70706 2.00419 1.65568 1.88244 1.654 1.755V0.545C1.64606 0.476492 1.6527 0.40708 1.67349 0.341321C1.69428 0.275562 1.72874 0.214945 1.77462 0.163448C1.82049 0.111951 1.87674 0.0707409 1.93967 0.0425223C2.0026 0.0143038 2.07078 -0.000284434 2.13975 -0.000284434C2.20872 -0.000284434 2.2769 0.0143038 2.33983 0.0425223C2.40276 0.0707409 2.45901 0.111951 2.50488 0.163448C2.55076 0.214945 2.58522 0.275562 2.60601 0.341321C2.6268 0.40708 2.63344 0.476492 2.6255 0.545V1.755C2.62379 1.88356 2.57152 2.00628 2.48 2.09658C2.38848 2.18689 2.26507 2.23751 2.1365 2.2375ZM2.1235 6.517C2.25319 6.517 2.37757 6.46548 2.46928 6.37378C2.56098 6.28207 2.6125 6.15769 2.6125 6.028C2.6125 5.89831 2.56098 5.77393 2.46928 5.68222C2.37757 5.59052 2.25319 5.539 2.1235 5.539C1.99381 5.539 1.86943 5.59052 1.77772 5.68222C1.68602 5.77393 1.6345 5.89831 1.6345 6.028C1.6345 6.15769 1.68602 6.28207 1.77772 6.37378C1.86943 6.46548 1.99381 6.517 2.1235 6.517ZM2.1235 5.095C2.18772 5.095 2.2513 5.08235 2.31063 5.05778C2.36996 5.0332 2.42387 4.99718 2.46928 4.95178C2.51468 4.90637 2.5507 4.85246 2.57528 4.79313C2.59985 4.7338 2.6125 4.67022 2.6125 4.606C2.6125 4.54178 2.59985 4.4782 2.57528 4.41887C2.5507 4.35954 2.51468 4.30563 2.46928 4.26023C2.42387 4.21482 2.36996 4.1788 2.31063 4.15422C2.2513 4.12965 2.18772 4.117 2.1235 4.117C1.99381 4.117 1.86943 4.16852 1.77772 4.26023C1.68602 4.35193 1.6345 4.47631 1.6345 4.606C1.6345 4.73569 1.68602 4.86007 1.77772 4.95178C1.86943 5.04348 1.99381 5.095 2.1235 5.095ZM2.1235 3.666C2.25319 3.666 2.37757 3.61448 2.46928 3.52278C2.56098 3.43107 2.6125 3.30669 2.6125 3.177C2.6125 3.04731 2.56098 2.92293 2.46928 2.83122C2.37757 2.73952 2.25319 2.688 2.1235 2.688C1.99381 2.688 1.86943 2.73952 1.77772 2.83122C1.68602 2.92293 1.6345 3.04731 1.6345 3.177C1.6345 3.30669 1.68602 3.43107 1.77772 3.52278C1.86943 3.61448 1.99381 3.666 2.1235 3.666Z" fill="var(--fill-0, #AECBFA)"/>
<path id="Vector_5" d="M9.859 3.6535C9.73035 3.65179 9.60756 3.59945 9.51724 3.50782C9.42693 3.41619 9.37636 3.29266 9.3765 3.164V1.954C9.3765 1.82603 9.42734 1.70331 9.51782 1.61282C9.60831 1.52233 9.73103 1.4715 9.859 1.4715C9.98697 1.4715 10.1097 1.52233 10.2002 1.61282C10.2907 1.70331 10.3415 1.82603 10.3415 1.954V3.164C10.3425 3.22797 10.3307 3.29149 10.3069 3.35087C10.2831 3.41025 10.2477 3.4643 10.2028 3.50986C10.1579 3.55542 10.1044 3.59159 10.0454 3.61625C9.98633 3.64091 9.92298 3.65357 9.859 3.6535ZM9.8715 6.5235C9.93572 6.5235 9.9993 6.51085 10.0586 6.48628C10.118 6.4617 10.1719 6.42568 10.2173 6.38028C10.2627 6.33487 10.2987 6.28096 10.3233 6.22163C10.3479 6.1623 10.3605 6.09872 10.3605 6.0345C10.3605 5.97028 10.3479 5.9067 10.3233 5.84737C10.2987 5.78804 10.2627 5.73413 10.2173 5.68872C10.1719 5.64332 10.118 5.6073 10.0586 5.58272C9.9993 5.55815 9.93572 5.5455 9.8715 5.5455C9.74181 5.5455 9.61743 5.59702 9.52572 5.68872C9.43402 5.78043 9.3825 5.90481 9.3825 6.0345C9.3825 6.16419 9.43402 6.28857 9.52572 6.38028C9.61743 6.47198 9.74181 6.5235 9.8715 6.5235ZM9.8715 5.0755C10.0012 5.0755 10.1256 5.02398 10.2173 4.93228C10.309 4.84057 10.3605 4.71619 10.3605 4.5865C10.3605 4.45681 10.309 4.33243 10.2173 4.24072C10.1256 4.14902 10.0012 4.0975 9.8715 4.0975C9.74181 4.0975 9.61743 4.14902 9.52572 4.24072C9.43402 4.33243 9.3825 4.45681 9.3825 4.5865C9.3825 4.71619 9.43402 4.84057 9.52572 4.93228C9.61743 5.02398 9.74181 5.0755 9.8715 5.0755ZM9.8715 1.034C9.93572 1.034 9.9993 1.02135 10.0586 0.996777C10.118 0.972203 10.1719 0.936183 10.2173 0.890775C10.2627 0.845367 10.2987 0.79146 10.3233 0.732132C10.3479 0.672804 10.3605 0.609216 10.3605 0.545C10.3605 0.480784 10.3479 0.417196 10.3233 0.357868C10.2987 0.29854 10.2627 0.244633 10.2173 0.199225C10.1719 0.153817 10.118 0.117797 10.0586 0.0932229C9.9993 0.0686484 9.93572 0.056 9.8715 0.056C9.74181 0.056 9.61743 0.107519 9.52572 0.199225C9.43402 0.29093 9.3825 0.415309 9.3825 0.545C9.3825 0.674691 9.43402 0.79907 9.52572 0.890775C9.61743 0.982481 9.74181 1.034 9.8715 1.034Z" fill="var(--fill-0, #4285F4)"/>
<path id="Vector_6" d="M5.9975 7.9585C5.87006 7.95682 5.74831 7.90544 5.65818 7.81532C5.56806 7.72519 5.51668 7.60344 5.515 7.476V6.2465C5.52881 6.12735 5.58592 6.01744 5.67548 5.93765C5.76504 5.85787 5.88081 5.81378 6.00075 5.81378C6.12069 5.81378 6.23646 5.85787 6.32602 5.93765C6.41558 6.01744 6.47269 6.12735 6.4865 6.2465V7.463C6.4875 7.5278 6.47558 7.59214 6.45144 7.65229C6.42729 7.71243 6.39142 7.76716 6.3459 7.81328C6.30038 7.85941 6.24612 7.89601 6.18631 7.92094C6.12649 7.94587 6.06231 7.95864 5.9975 7.9585ZM5.9975 9.381C6.12719 9.381 6.25157 9.32948 6.34328 9.23778C6.43498 9.14607 6.4865 9.02169 6.4865 8.892C6.4865 8.76231 6.43498 8.63793 6.34328 8.54622C6.25157 8.45452 6.12719 8.403 5.9975 8.403C5.86781 8.403 5.74343 8.45452 5.65172 8.54622C5.56002 8.63793 5.5085 8.76231 5.5085 8.892C5.5085 9.02169 5.56002 9.14607 5.65172 9.23778C5.74343 9.32948 5.86781 9.381 5.9975 9.381ZM5.9975 5.32C6.12719 5.32 6.25157 5.26848 6.34328 5.17677C6.43498 5.08507 6.4865 4.96069 6.4865 4.831C6.4865 4.70131 6.43498 4.57693 6.34328 4.48522C6.25157 4.39352 6.12719 4.342 5.9975 4.342C5.86781 4.342 5.74343 4.39352 5.65172 4.48522C5.56002 4.57693 5.5085 4.70131 5.5085 4.831C5.5085 4.96069 5.56002 5.08507 5.65172 5.17677C5.74343 5.26848 5.86781 5.32 5.9975 5.32ZM5.9975 3.8915C6.12719 3.8915 6.25157 3.83998 6.34328 3.74828C6.43498 3.65657 6.4865 3.53219 6.4865 3.4025C6.4865 3.27281 6.43498 3.14843 6.34328 3.05672C6.25157 2.96502 6.12719 2.9135 5.9975 2.9135C5.86781 2.9135 5.74343 2.96502 5.65172 3.05672C5.56002 3.14843 5.5085 3.27281 5.5085 3.4025C5.5085 3.53219 5.56002 3.65657 5.65172 3.74828C5.74343 3.83998 5.86781 3.8915 5.9975 3.8915Z" fill="var(--fill-0, #669DF6)"/>
<path id="Vector_7" d="M7.928 5.0885C7.80056 5.08682 7.67881 5.03544 7.58868 4.94532C7.49856 4.85519 7.44718 4.73344 7.4455 4.606V3.396C7.43316 3.29261 7.45418 3.18798 7.50549 3.09738C7.5568 3.00678 7.63571 2.93494 7.73073 2.89234C7.82574 2.84975 7.93188 2.83863 8.03365 2.8606C8.13543 2.88258 8.22753 2.9365 8.2965 3.0145C8.34232 3.06602 8.37674 3.12663 8.3975 3.19238C8.41827 3.25812 8.42491 3.32751 8.417 3.396V4.606C8.41529 4.73456 8.36302 4.85728 8.2715 4.94758C8.17998 5.03789 8.05657 5.08851 7.928 5.0885ZM7.9345 2.4565C7.99872 2.4565 8.0623 2.44385 8.12163 2.41928C8.18096 2.3947 8.23487 2.35868 8.28028 2.31328C8.32568 2.26787 8.3617 2.21396 8.38628 2.15463C8.41085 2.0953 8.4235 2.03172 8.4235 1.9675C8.4235 1.90328 8.41085 1.8397 8.38628 1.78037C8.3617 1.72104 8.32568 1.66713 8.28028 1.62172C8.23487 1.57632 8.18096 1.5403 8.12163 1.51572C8.0623 1.49115 7.99872 1.4785 7.9345 1.4785C7.80481 1.4785 7.68043 1.53002 7.58872 1.62172C7.49702 1.71343 7.4455 1.83781 7.4455 1.9675C7.4455 2.09719 7.49702 2.22157 7.58872 2.31328C7.68043 2.40498 7.80481 2.4565 7.9345 2.4565ZM7.9345 7.9265C8.06419 7.9265 8.18857 7.87498 8.28028 7.78328C8.37198 7.69157 8.4235 7.56719 8.4235 7.4375C8.4235 7.30781 8.37198 7.18343 8.28028 7.09172C8.18857 7.00002 8.06419 6.9485 7.9345 6.9485C7.80481 6.9485 7.68043 7.00002 7.58872 7.09172C7.49702 7.18343 7.4455 7.30781 7.4455 7.4375C7.4455 7.56719 7.49702 7.69157 7.58872 7.78328C7.68043 7.87498 7.80481 7.9265 7.9345 7.9265ZM7.9345 6.498C8.06419 6.498 8.18857 6.44648 8.28028 6.35478C8.37198 6.26307 8.4235 6.13869 8.4235 6.009C8.4235 5.87931 8.37198 5.75493 8.28028 5.66322C8.18857 5.57152 8.06419 5.52 7.9345 5.52C7.80481 5.52 7.68043 5.57152 7.58872 5.66322C7.49702 5.75493 7.4455 5.87931 7.4455 6.009C7.4455 6.13869 7.49702 6.26307 7.58872 6.35478C7.68043 6.44648 7.80481 6.498 7.9345 6.498Z" fill="var(--fill-0, #4285F4)"/>
<path id="Vector_8" d="M4.0605 7.9265C4.19019 7.9265 4.31457 7.87498 4.40628 7.78328C4.49798 7.69157 4.5495 7.56719 4.5495 7.4375C4.5495 7.30781 4.49798 7.18343 4.40628 7.09172C4.31457 7.00002 4.19019 6.9485 4.0605 6.9485C3.93081 6.9485 3.80643 7.00002 3.71472 7.09172C3.62302 7.18343 3.5715 7.30781 3.5715 7.4375C3.5715 7.56719 3.62302 7.69157 3.71472 7.78328C3.80643 7.87498 3.93081 7.9265 4.0605 7.9265ZM4.0605 3.8915C4.19019 3.8915 4.31457 3.83998 4.40628 3.74828C4.49798 3.65657 4.5495 3.53219 4.5495 3.4025C4.5495 3.27281 4.49798 3.14843 4.40628 3.05672C4.31457 2.96502 4.19019 2.9135 4.0605 2.9135C3.93081 2.9135 3.80643 2.96502 3.71472 3.05672C3.62302 3.14843 3.5715 3.27281 3.5715 3.4025C3.5715 3.53219 3.62302 3.65657 3.71472 3.74828C3.80643 3.83998 3.93081 3.8915 4.0605 3.8915ZM4.0605 2.4565C4.19026 2.4565 4.3147 2.40495 4.40645 2.3132C4.4982 2.22145 4.54975 2.09701 4.54975 1.96725C4.54975 1.83749 4.4982 1.71305 4.40645 1.6213C4.3147 1.52955 4.19026 1.478 4.0605 1.478C3.93074 1.478 3.8063 1.52955 3.71455 1.6213C3.6228 1.71305 3.57125 1.83749 3.57125 1.96725C3.57125 2.09701 3.6228 2.22145 3.71455 2.3132C3.8063 2.40495 3.93074 2.4565 4.0605 2.4565ZM4.067 6.498C3.94053 6.4981 3.81895 6.44919 3.72777 6.36156C3.63659 6.27392 3.58291 6.15437 3.578 6.028V4.8055C3.578 4.67753 3.62883 4.55481 3.71932 4.46432C3.80981 4.37383 3.93253 4.323 4.0605 4.323C4.18847 4.323 4.31119 4.37383 4.40168 4.46432C4.49217 4.55481 4.543 4.67753 4.543 4.8055V6.028C4.53966 6.15263 4.48825 6.27114 4.39953 6.35874C4.31082 6.44634 4.19166 6.49624 4.067 6.498Z" fill="var(--fill-0, #AECBFA)"/>
</g>
<defs>
<clipPath id="clip0_1082_685">
<rect width="12" height="12" fill="white"/>
</clipPath>
</defs>
</svg>
