<svg preserveAspectRatio="none" width="100%" height="100%" overflow="visible" style="display: block;" viewBox="0 0 12 12" fill="none" xmlns="http://www.w3.org/2000/svg">
<g id="codex-color 1" clip-path="url(#clip0_1082_671)">
<path id="Vector" d="M9.7515 5.56101e-08H2.248C1.65179 5.56101e-08 1.08001 0.236842 0.658424 0.658424C0.236842 1.08001 5.56101e-08 1.65179 5.56101e-08 2.248V9.7515C-6.56147e-05 10.0468 0.0580322 10.3391 0.170975 10.6119C0.283919 10.8847 0.449495 11.1326 0.658247 11.3414C0.867 11.5502 1.11484 11.7158 1.38761 11.8288C1.66038 11.9418 1.95275 12 2.248 12H9.7515C10.0468 12.0001 10.3392 11.942 10.612 11.829C10.8849 11.716 11.1328 11.5504 11.3416 11.3416C11.5504 11.1328 11.716 10.8849 11.829 10.612C11.942 10.3392 12.0001 10.0468 12 9.7515V2.248C12 1.95275 11.9418 1.66038 11.8288 1.38761C11.7158 1.11484 11.5502 0.867 11.3414 0.658247C11.1326 0.449495 10.8847 0.283919 10.6119 0.170975C10.3391 0.0580322 10.0468 -6.56147e-05 9.7515 5.56101e-08Z" fill="var(--fill-0, white)"/>
<path id="Vector_2" d="M4.532 1.672C4.89328 1.52336 5.28659 1.46965 5.6745 1.516C6.1745 1.5735 6.62 1.786 7.011 2.1535C7.016 2.1585 7.023 2.162 7.0295 2.164C7.03656 2.16574 7.04394 2.16574 7.051 2.164C7.55932 2.03273 8.09741 2.08131 8.574 2.3015L8.5975 2.3125L8.6555 2.341C9.15439 2.59385 9.54351 3.02051 9.7495 3.5405C9.854 3.7955 9.906 4.061 9.907 4.338C9.91452 4.54401 9.89194 4.75001 9.84 4.9495C9.83744 4.95957 9.83747 4.97013 9.84009 4.98018C9.84272 4.99024 9.84784 4.99946 9.855 5.007C10.152 5.3105 10.349 5.672 10.4465 6.092C10.591 6.8045 10.443 7.447 10.003 8.019L9.935 8.102C9.64359 8.43558 9.2611 8.67678 8.8345 8.796C8.82524 8.79871 8.81675 8.80357 8.80972 8.81017C8.80268 8.81677 8.7973 8.82493 8.794 8.834C8.6985 9.1095 8.6025 9.3455 8.424 9.581C7.974 10.1745 7.313 10.504 6.5685 10.5C5.975 10.497 5.449 10.28 4.99 9.849C4.98309 9.84254 4.97459 9.83802 4.96537 9.83591C4.95615 9.83381 4.94653 9.83418 4.9375 9.837C4.7435 9.8995 4.5475 9.9085 4.3355 9.906C3.99783 9.90329 3.66523 9.8236 3.363 9.673C3.04641 9.51612 2.77078 9.28757 2.558 9.0055C2.482 8.9045 2.4065 8.8095 2.351 8.697C2.27523 8.54262 2.21332 8.38183 2.166 8.2165C2.0661 7.84031 2.06369 7.44488 2.159 7.0675C2.16213 7.05852 2.16316 7.04894 2.162 7.0395C2.16029 7.03022 2.15554 7.02178 2.1485 7.0155C1.91753 6.78172 1.741 6.49985 1.6315 6.19C1.55868 5.99914 1.51632 5.79802 1.506 5.594C1.48784 5.32529 1.51162 5.05539 1.5765 4.794C1.745 4.238 2.0675 3.8015 2.543 3.485C2.649 3.4145 2.7495 3.3595 2.8435 3.32C2.951 3.2755 3.0585 3.238 3.1665 3.2065C3.17422 3.20411 3.18122 3.19984 3.1869 3.19408C3.19257 3.18832 3.19672 3.18125 3.199 3.1735C3.28101 2.87902 3.42203 2.60429 3.6135 2.366C3.85487 2.0595 4.17123 1.82047 4.532 1.672ZM6.273 6.9545C6.19174 6.95906 6.11532 6.99455 6.05941 7.05368C6.00349 7.11282 5.97234 7.19112 5.97234 7.2725C5.97234 7.35388 6.00349 7.43218 6.05941 7.49132C6.11532 7.55045 6.19174 7.58594 6.273 7.5905H8.091C8.13426 7.59293 8.17756 7.5865 8.21825 7.57162C8.25894 7.55673 8.29617 7.5337 8.32766 7.50393C8.35914 7.47417 8.38422 7.43829 8.40136 7.3985C8.4185 7.3587 8.42734 7.31583 8.42734 7.2725C8.42734 7.22917 8.4185 7.1863 8.40136 7.1465C8.38422 7.10671 8.35914 7.07083 8.32766 7.04107C8.29617 7.0113 8.25894 6.98827 8.21825 6.97338C8.17756 6.9585 8.13426 6.95207 8.091 6.9545H6.273ZM4.231 4.615C4.18773 4.54453 4.11875 4.49364 4.03864 4.47312C3.95853 4.45259 3.87357 4.46402 3.80174 4.505C3.72992 4.54598 3.67684 4.6133 3.65375 4.69271C3.63065 4.77211 3.63935 4.85739 3.678 4.9305L4.314 6.0425L3.681 7.1105C3.65969 7.14645 3.64568 7.18624 3.63975 7.22761C3.63382 7.26898 3.6361 7.31111 3.64645 7.35159C3.65681 7.39208 3.67503 7.43013 3.70009 7.46357C3.72515 7.49701 3.75655 7.52519 3.7925 7.5465C3.82845 7.56781 3.86824 7.58182 3.90961 7.58775C3.95098 7.59368 3.99311 7.5914 4.03359 7.58105C4.07408 7.57069 4.11213 7.55247 4.14557 7.52741C4.17901 7.50235 4.20719 7.47095 4.2285 7.435L4.9555 6.2075C4.98416 6.15914 4.9995 6.10405 4.99994 6.04784C5.00037 5.99162 4.9859 5.9363 4.958 5.8875L4.231 4.615Z" fill="url(#paint0_linear_1082_671)"/>
</g>
<defs>
<linearGradient id="paint0_linear_1082_671" x1="6" y1="1.5" x2="6" y2="10.5" gradientUnits="userSpaceOnUse">
<stop stop-color="#B1A7FF"/>
<stop offset="0.5" stop-color="#7A9DFF"/>
<stop offset="1" stop-color="#3941FF"/>
</linearGradient>
<clipPath id="clip0_1082_671">
<rect width="12" height="12" fill="white"/>
</clipPath>
</defs>
</svg>
