<svg preserveAspectRatio="none" width="100%" height="100%" overflow="visible" style="display: block;" viewBox="0 0 12 12" fill="none" xmlns="http://www.w3.org/2000/svg">
<g id="ollama 1">
<path id="Vector" fill-rule="evenodd" clip-rule="evenodd" d="M3.9525 0.545C4.0605 0.5875 4.158 0.6575 4.2465 0.75C4.394 0.903 4.5185 1.122 4.6135 1.3815C4.709 1.6425 4.771 1.9315 4.7945 2.2215C5.10931 2.0434 5.45868 1.93496 5.819 1.9035L5.8445 1.9015C6.2795 1.8665 6.7095 1.945 7.0845 2.1385C7.135 2.165 7.1845 2.1935 7.233 2.2235C7.258 1.939 7.319 1.6565 7.413 1.4015C7.508 1.1415 7.6325 0.923 7.7795 0.7695C7.86165 0.680632 7.96214 0.610684 8.074 0.5645C8.2025 0.5145 8.339 0.5055 8.472 0.5435C8.6725 0.6005 8.8445 0.7275 8.98 0.912C9.104 1.0805 9.197 1.2965 9.2605 1.5555C9.3755 2.0225 9.3955 2.637 9.318 3.378L9.3445 3.398L9.3575 3.4075C9.736 3.6955 9.9995 4.106 10.139 4.5825C10.3565 5.326 10.247 6.16 9.872 6.6265L9.863 6.637L9.864 6.6385C10.0725 7.0195 10.199 7.422 10.226 7.8385L10.227 7.8535C10.259 8.386 10.127 8.922 9.82 9.4485L9.8165 9.4535L9.8215 9.4655C10.0575 10.044 10.1315 10.6265 10.0405 11.2085L10.0375 11.228C10.0234 11.313 9.97616 11.389 9.90615 11.4392C9.83613 11.4894 9.74905 11.5099 9.664 11.496C9.62188 11.4894 9.58148 11.4746 9.5451 11.4524C9.50873 11.4302 9.47709 11.401 9.45201 11.3665C9.42693 11.3321 9.40889 11.293 9.39894 11.2515C9.38899 11.2101 9.38731 11.1671 9.394 11.125C9.4775 10.6085 9.399 10.0905 9.154 9.5635C9.13114 9.51454 9.12099 9.46061 9.12449 9.40669C9.12798 9.35277 9.14501 9.3006 9.174 9.255L9.176 9.252C9.478 8.79 9.603 8.337 9.576 7.892C9.553 7.5025 9.4135 7.12 9.176 6.7555C9.12981 6.68464 9.11335 6.59845 9.13019 6.51555C9.14704 6.43266 9.19582 6.35972 9.266 6.3125L9.2705 6.3095C9.392 6.23 9.504 6.027 9.5605 5.7495C9.62284 5.42137 9.60656 5.08313 9.513 4.7625C9.4105 4.4125 9.223 4.1205 8.9605 3.921C8.663 3.694 8.269 3.5845 7.7705 3.616C7.70532 3.62024 7.64036 3.60483 7.58402 3.57176C7.52769 3.53869 7.48257 3.48948 7.4545 3.4305C7.2975 3.098 7.0685 2.86 6.783 2.7125C6.5089 2.5757 6.20203 2.5182 5.897 2.5465C5.2745 2.596 4.7255 2.947 4.562 3.3895C4.53887 3.45178 4.49727 3.5055 4.44276 3.54348C4.38825 3.58146 4.32343 3.60188 4.257 3.602C3.7235 3.603 3.3105 3.728 3.0085 3.9535C2.7475 4.1485 2.5695 4.421 2.4755 4.7475C2.39044 5.05483 2.37879 5.37784 2.4415 5.6905C2.4975 5.9695 2.607 6.2005 2.7325 6.325L2.7365 6.3285C2.8425 6.432 2.865 6.5935 2.791 6.721C2.611 7.032 2.4765 7.4955 2.4545 7.941C2.4295 8.45 2.5475 8.892 2.814 9.209L2.822 9.2185C2.86222 9.26537 2.88808 9.32283 2.89651 9.38401C2.90493 9.44519 2.89556 9.50751 2.8695 9.5635C2.5815 10.1815 2.493 10.6895 2.5885 11.0895C2.60567 11.1727 2.58969 11.2593 2.54399 11.3308C2.49828 11.4024 2.42644 11.4533 2.34376 11.4728C2.26108 11.4922 2.17408 11.4786 2.10129 11.4348C2.0285 11.3911 1.97565 11.3206 1.954 11.2385C1.8325 10.7295 1.915 10.1465 2.1905 9.4895L2.1975 9.472L2.1935 9.466C2.0581 9.266 1.95704 9.04479 1.8945 8.8115L1.892 8.802C1.81611 8.51094 1.78624 8.2098 1.8035 7.9095C1.8255 7.4545 1.9425 6.9885 2.1145 6.6145L2.1205 6.6015L2.1195 6.6005C1.973 6.3915 1.8645 6.124 1.8045 5.828L1.802 5.816C1.71933 5.40312 1.73526 4.97656 1.8485 4.571C1.9795 4.1135 2.237 3.7205 2.6165 3.4365C2.6465 3.414 2.678 3.3915 2.7095 3.3705C2.63 2.624 2.65 2.0055 2.7655 1.5355C2.829 1.2765 2.9225 1.0605 3.0465 0.892C3.1815 0.708 3.3535 0.581 3.554 0.5235C3.687 0.4855 3.824 0.494 3.9525 0.5445V0.545ZM6.0105 5.09C6.4785 5.09 6.9105 5.2465 7.2335 5.5175C7.5485 5.781 7.736 6.135 7.736 6.4875C7.736 6.9315 7.533 7.2775 7.1695 7.4985C6.8595 7.686 6.444 7.777 5.968 7.777C5.4635 7.777 5.0325 7.6475 4.7215 7.41C4.413 7.175 4.24 6.845 4.24 6.4875C4.24 6.134 4.439 5.779 4.768 5.5145C5.102 5.246 5.543 5.09 6.0105 5.09ZM6.0105 5.538C5.66362 5.53497 5.32594 5.64953 5.0525 5.863C4.822 6.048 4.6915 6.2805 4.6915 6.488C4.6915 6.702 4.7965 6.9025 4.9965 7.055C5.224 7.2285 5.5585 7.329 5.968 7.329C6.3675 7.329 6.7045 7.2555 6.934 7.116C7.1655 6.976 7.284 6.773 7.284 6.4875C7.284 6.276 7.161 6.0425 6.9425 5.8595C6.7005 5.657 6.3725 5.538 6.0105 5.538ZM6.3415 6.143L6.3435 6.145C6.4035 6.2205 6.391 6.33 6.3155 6.39L6.1695 6.505V6.728C6.16924 6.77764 6.1493 6.82515 6.11405 6.86011C6.07881 6.89507 6.03114 6.91463 5.9815 6.9145C5.93186 6.91463 5.88419 6.89507 5.84895 6.86011C5.8137 6.82515 5.79376 6.77764 5.7935 6.728V6.498L5.658 6.389C5.64013 6.37468 5.62526 6.35696 5.61427 6.33686C5.60328 6.31677 5.59638 6.29469 5.59396 6.27192C5.59155 6.24914 5.59366 6.22611 5.60019 6.20415C5.60672 6.1822 5.61753 6.16176 5.632 6.144C5.66151 6.10807 5.70401 6.08524 5.75026 6.08047C5.79651 6.07569 5.84277 6.08936 5.879 6.1185L5.9865 6.2045L6.0965 6.1175C6.1326 6.08898 6.17842 6.07568 6.22418 6.08044C6.26995 6.08521 6.31204 6.10765 6.3415 6.143ZM3.8215 5.1835C4.0605 5.1835 4.255 5.3785 4.255 5.619C4.25513 5.73428 4.2095 5.8449 4.12812 5.92656C4.04675 6.00822 3.93628 6.05424 3.821 6.0545C3.70589 6.0541 3.59563 6.0081 3.51438 5.92656C3.43312 5.84503 3.3875 5.73461 3.3875 5.6195C3.38723 5.50422 3.43274 5.39354 3.51402 5.31179C3.59531 5.23004 3.70622 5.1839 3.8215 5.1835ZM8.1745 5.1835C8.4145 5.1835 8.6085 5.3785 8.6085 5.619C8.60863 5.73428 8.563 5.8449 8.48162 5.92656C8.40025 6.00822 8.28978 6.05424 8.1745 6.0545C8.05939 6.0541 7.94913 6.0081 7.86788 5.92656C7.78662 5.84503 7.741 5.73461 7.741 5.6195C7.74073 5.50422 7.78624 5.39354 7.86752 5.31179C7.94881 5.23004 8.05922 5.1839 8.1745 5.1835ZM3.72 1.15L3.7185 1.151C3.66058 1.17619 3.61111 1.21749 3.576 1.27L3.5735 1.273C3.5045 1.3675 3.4445 1.5065 3.3995 1.689C3.3145 2.035 3.2915 2.5045 3.3375 3.08C3.5525 3.016 3.787 2.976 4.0395 2.9615L4.0445 2.961L4.054 2.944C4.077 2.903 4.1015 2.8635 4.128 2.8245C4.1895 2.439 4.139 1.9785 4.0015 1.6025C3.9345 1.4205 3.853 1.2775 3.775 1.196C3.7589 1.17906 3.74095 1.16396 3.7215 1.151L3.72 1.15ZM8.307 1.17L8.306 1.1705C8.28655 1.18346 8.2686 1.19856 8.2525 1.2155C8.1745 1.297 8.0925 1.4405 8.026 1.6225C7.881 2.0195 7.8325 2.5105 7.911 2.9085L7.94 2.957L7.944 2.964H7.959C8.20715 2.96406 8.454 2.99976 8.692 3.07C8.735 2.508 8.711 2.0485 8.628 1.709C8.583 1.5265 8.523 1.3875 8.4535 1.293L8.4515 1.29C8.41646 1.23731 8.36699 1.19582 8.309 1.1705H8.307V1.17Z" fill="var(--fill-0, black)"/>
</g>
</svg>
