<svg preserveAspectRatio="none" width="100%" height="100%" overflow="visible" style="display: block;" viewBox="0 0 12 12" fill="none" xmlns="http://www.w3.org/2000/svg">
<g id="manus 1" clip-path="url(#clip0_1082_542)">
<path id="Vector" fill-rule="evenodd" clip-rule="evenodd" d="M4.0235 0.5815C4.00784 0.521628 4.00421 0.459245 4.01282 0.397962C4.02143 0.336678 4.04211 0.277711 4.07366 0.224472C4.10521 0.171234 4.14701 0.124782 4.19664 0.0878049C4.24626 0.0508278 4.30272 0.0240598 4.36276 0.00905038C4.4228 -0.0059591 4.48522 -0.00891206 4.54641 0.000362399C4.60759 0.00963686 4.66633 0.0309545 4.71923 0.0630817C4.77212 0.0952088 4.81811 0.137507 4.85455 0.187529C4.89099 0.237551 4.91714 0.294303 4.9315 0.3545C4.963 0.4825 4.9975 0.6085 5.0315 0.7345L5.034 0.7425C5.113 1.0325 5.1915 1.3225 5.242 1.628C5.25201 1.68864 5.24999 1.75065 5.23603 1.81051C5.22208 1.87036 5.19647 1.92688 5.16067 1.97684C5.12488 2.0268 5.07959 2.06922 5.0274 2.10167C4.97521 2.13413 4.91714 2.15599 4.8565 2.166C4.79586 2.17601 4.73385 2.17399 4.67399 2.16003C4.61414 2.14608 4.55762 2.12047 4.50766 2.08467C4.40677 2.01238 4.33872 1.90296 4.3185 1.7805C4.276 1.522 4.217 1.306 4.1455 1.044V1.043C4.108 0.906 4.067 0.7565 4.0235 0.5815ZM1.835 1.3765C1.78042 1.4879 1.7723 1.61641 1.81243 1.73379C1.85256 1.85118 1.93765 1.94782 2.049 2.0025C2.3825 2.166 2.6715 2.3275 2.958 2.65C3.04121 2.7396 3.15618 2.79307 3.27831 2.79897C3.40044 2.80488 3.52003 2.76276 3.6115 2.68161C3.70297 2.60047 3.75905 2.48675 3.76774 2.36478C3.77643 2.24282 3.73704 2.12229 3.658 2.029C3.25 1.569 2.83 1.3435 2.461 1.1625C2.3496 1.10792 2.22109 1.0998 2.10371 1.13993C1.98632 1.18006 1.88968 1.26515 1.835 1.3765Z" fill="var(--fill-0, black)"/>
<path id="Vector_2" fill-rule="evenodd" clip-rule="evenodd" d="M7.836 10.642C7.751 10.624 7.658 10.6045 7.563 10.5835C7.213 10.5075 6.738 10.401 6.5145 10.327L6.498 10.3215L6.482 10.3155C6.383 10.2785 6.215 10.2375 5.937 10.174L5.8855 10.1625C5.6455 10.1075 5.3505 10.0405 5.0705 9.956C4.7815 9.868 4.4235 9.7375 4.119 9.525C3.8 9.302 3.437 8.909 3.417 8.319C3.41418 8.23398 3.41568 8.14887 3.4215 8.064C3.26085 7.88929 3.14879 7.67552 3.0965 7.444C3.04916 7.23348 3.05431 7.01456 3.1115 6.8065C3.153 6.648 3.2165 6.5095 3.2695 6.4065C3.2875 6.3715 3.306 6.3365 3.3245 6.3035C3.1495 6.248 2.951 6.1795 2.758 6.0975C2.5065 5.99 2.149 5.8125 1.882 5.527C1.70529 5.34241 1.58252 5.11294 1.527 4.8635C1.46778 4.57881 1.50765 4.28242 1.64 4.0235C1.942 3.4195 2.5185 3.206 3.031 3.1875C3.494 3.171 3.987 3.3005 4.4285 3.4555C4.8305 3.5965 5.406 3.859 5.895 4.0875C6.056 3.823 6.2685 3.5245 6.4695 3.2835L6.5095 3.236L6.5555 3.194C6.83943 2.93492 7.20217 2.77873 7.5855 2.7505C7.76301 2.73728 7.94149 2.75076 8.115 2.7905L8.133 2.7945L8.1445 2.798H8.146L8.147 2.7985C8.147 2.7985 8.148 2.7985 7.9085 3.6915L8.148 2.7985L8.252 2.8275L8.347 2.8785C8.829 3.1365 8.966 3.5815 9.002 3.8165C9.02425 3.96629 9.0229 4.11863 8.998 4.268L8.9965 4.277V4.2795L8.0675 4.0945L8.996 4.28L8.991 4.307L8.841 4.902C8.812 5.048 8.8085 5.1315 8.81 5.1755C8.80924 5.19368 8.81195 5.21184 8.818 5.229C8.8245 5.244 8.8395 5.277 8.895 5.361C8.9165 5.394 8.939 5.4265 8.967 5.468L8.996 5.51C9.036 5.569 9.083 5.6385 9.133 5.716C9.4445 6.201 9.475 6.667 9.473 6.9655V6.9785L9.592 7.0175L9.6435 7.0335L9.72 7.058C9.758 7.07 9.8065 7.086 9.8535 7.103C9.9085 7.002 10.057 6.785 10.326 6.785C10.677 6.785 10.821 7.2785 10.821 7.2785C10.9585 8.1975 10.331 11.285 9.424 11.8605C8.731 12.3005 8.2175 11.647 7.836 10.642ZM4.36 6.434C4.419 6.3745 4.595 6.249 4.928 6.2115C5.30893 6.17292 5.69329 6.23589 6.042 6.394C6.3535 6.532 6.5685 6.848 6.6585 7.2275C6.7025 7.413 6.7105 7.593 6.6915 7.74C6.6715 7.895 6.6275 7.9725 6.607 7.9955C6.582 8.0245 6.493 8.074 6.2465 8.022C6.11435 7.99295 5.98612 7.9483 5.8645 7.889L5.8615 7.8875C5.75154 7.83265 5.62442 7.82325 5.50758 7.86133C5.39075 7.8994 5.29358 7.98191 5.23705 8.09102C5.18053 8.20013 5.16919 8.32709 5.20547 8.44449C5.24176 8.56189 5.32277 8.66031 5.431 8.7185L5.433 8.7195L5.437 8.7215L5.449 8.7275C5.50468 8.75498 5.56139 8.78034 5.619 8.8035C5.7265 8.8465 5.879 8.9005 6.052 8.937C6.3595 9.002 6.927 9.052 7.312 8.611C7.497 8.399 7.586 8.121 7.6195 7.8605C7.65357 7.57695 7.63663 7.28959 7.5695 7.012C7.4355 6.448 7.0815 5.831 6.421 5.538C5.92054 5.31278 5.36931 5.22427 4.8235 5.2815C4.514 5.3165 4.218 5.4025 3.9785 5.5335L3.9685 5.5305H3.9665C3.375 5.3615 2.1985 5.0255 2.4885 4.4455C2.7085 4.0055 3.31 4.042 4.126 4.3285C4.4575 4.4445 4.918 4.652 5.3525 4.854C5.4875 4.9165 5.6195 4.979 5.7445 5.0375L6.2315 5.2645C6.578 4.8485 6.7125 4.6195 6.8315 4.417C6.913 4.278 6.9875 4.152 7.118 3.986L7.1305 3.97C7.15448 3.93972 7.17882 3.90971 7.2035 3.88C7.20679 3.87712 7.21013 3.87428 7.2135 3.8715C7.5345 3.588 7.908 3.6915 7.908 3.6915C8.1215 3.8055 8.0675 4.0945 8.0675 4.0945L7.919 4.6835C7.777 5.3765 7.934 5.606 8.1925 5.9835C8.2375 6.05 8.2865 6.121 8.3375 6.2C8.5435 6.5215 8.5335 6.83 8.526 7.0825C8.521 7.2445 8.5165 7.3835 8.571 7.487C8.683 7.6995 9.101 7.832 9.376 7.918C9.442 7.939 9.4995 7.957 9.5425 7.973L9.572 7.9845C9.533 8.1045 9.498 8.229 9.463 8.353C9.3065 8.9045 9.1515 9.454 8.688 9.618C8.372 9.7305 8.0565 9.725 7.833 9.696C7.44 9.611 6.975 9.5065 6.8 9.4485C6.6185 9.381 6.3645 9.3235 6.088 9.26C5.43 9.11 4.6465 8.932 4.4225 8.529C4.38398 8.46062 4.36254 8.38395 4.36 8.3055C4.347 7.9355 4.477 7.6035 4.477 7.6035C4.477 7.6035 4.2755 7.6045 4.1345 7.4685C4.07451 7.40993 4.03312 7.33497 4.0155 7.253C4.0005 7.188 3.9945 7.113 4.003 7.033C4.007 7.033 4.009 7.029 4.009 7.019C4.009 6.902 4.126 6.668 4.36 6.434Z" fill="var(--fill-0, black)"/>
<path id="Vector_3" fill-rule="evenodd" clip-rule="evenodd" d="M7.0385 0.302C7.14454 0.366358 7.22069 0.47018 7.25022 0.590654C7.27976 0.711127 7.26025 0.838398 7.196 0.9445C7.0185 1.2365 6.9155 1.535 6.803 1.985C6.78864 2.0452 6.76249 2.10195 6.72605 2.15197C6.68961 2.20199 6.64362 2.24429 6.59073 2.27642C6.53783 2.30855 6.47909 2.32986 6.41791 2.33914C6.35672 2.34841 6.2943 2.34546 6.23426 2.33045C6.17422 2.31544 6.11776 2.28867 6.06814 2.2517C6.01851 2.21472 5.97672 2.16827 5.94516 2.11503C5.91361 2.06179 5.89293 2.00282 5.88432 1.94154C5.87571 1.88025 5.87934 1.81787 5.895 1.758C6.0165 1.2725 6.147 0.869 6.396 0.459C6.46044 0.353045 6.5643 0.276998 6.68477 0.247561C6.80523 0.218124 6.93246 0.237704 7.0385 0.302Z" fill="var(--fill-0, black)"/>
</g>
<defs>
<clipPath id="clip0_1082_542">
<rect width="12" height="12" fill="white"/>
</clipPath>
</defs>
</svg>
