<svg preserveAspectRatio="none" width="100%" height="100%" overflow="visible" style="display: block;" viewBox="0 0 512 512" fill="none" xmlns="http://www.w3.org/2000/svg">
<g id="n8n-icon 1" clip-path="url(#clip0_1082_491)">
<path id="Vector" fill-rule="evenodd" clip-rule="evenodd" d="M512 179.2C512 207.467 488.49 230.4 459.478 230.4C435.03 230.4 414.464 214.08 408.618 192H335.318C322.475 192 311.531 201.045 309.418 213.397L307.264 226.027C305.235 237.699 299.2 248.299 290.197 256C298.987 263.552 305.217 274.005 307.264 285.973L309.397 298.603C311.659 311.061 322.688 320.149 335.339 320H356.139C361.963 297.92 382.529 281.6 406.998 281.6C436.011 281.6 459.498 304.533 459.498 332.8C459.498 361.067 435.968 384 406.998 384C382.528 384 361.984 367.68 356.138 345.6H335.338C309.653 345.6 287.765 327.51 283.541 302.827L281.387 290.197C279.125 277.76 268.117 268.672 255.488 268.8H234.027C227.457 289.792 207.445 305.067 183.765 305.067C160.085 305.067 140.075 289.792 133.525 268.8H102.763C96.192 289.792 76.181 305.067 52.523 305.067C23.509 305.067 0 282.133 0 253.867C0 225.6 23.51 202.667 52.523 202.667C77.76 202.667 98.859 220.053 103.893 243.2H132.416C137.451 220.053 158.549 202.667 183.786 202.667C209.046 202.667 230.123 220.053 235.157 243.2H255.467C268.288 243.2 279.253 234.155 281.344 221.803L283.52 209.173C287.744 184.491 309.653 166.4 335.318 166.4H408.618C414.464 144.32 435.03 128 459.478 128C488.49 128 512 150.933 512 179.2ZM485.76 179.2C485.76 193.344 473.984 204.8 459.478 204.8C444.971 204.8 433.238 193.344 433.238 179.2C433.238 165.056 444.971 153.6 459.478 153.6C473.984 153.6 485.738 165.056 485.738 179.2H485.76ZM52.501 279.467C67.008 279.467 78.741 268.011 78.741 253.867C78.741 239.723 67.008 228.267 52.501 228.267C37.995 228.267 26.24 239.723 26.24 253.867C26.24 268.011 37.973 279.467 52.48 279.467H52.501ZM183.765 279.467C198.272 279.467 210.027 268.011 210.027 253.867C210.027 239.723 198.293 228.267 183.787 228.267C169.28 228.267 157.525 239.723 157.525 253.867C157.525 268.011 169.259 279.467 183.765 279.467ZM406.955 358.4C421.462 358.4 433.195 346.944 433.195 332.8C433.195 318.656 421.462 307.2 406.955 307.2C392.448 307.2 380.715 318.656 380.715 332.8C380.715 346.944 392.448 358.4 406.955 358.4Z" fill="var(--fill-0, #EA4B71)"/>
</g>
<defs>
<clipPath id="clip0_1082_491">
<rect width="512" height="512" fill="white"/>
</clipPath>
</defs>
</svg>
