<svg preserveAspectRatio="none" width="100%" height="100%" overflow="visible" style="display: block;" viewBox="0 0 12 12" fill="none" xmlns="http://www.w3.org/2000/svg">
<g id="figma-color 1" clip-path="url(#clip0_1082_661)">
<path id="Vector" d="M2 10C2 9.46957 2.21071 8.96086 2.58579 8.58579C2.96086 8.21071 3.46957 8 4 8H6V10C6 10.5304 5.78929 11.0391 5.41421 11.4142C5.03914 11.7893 4.53043 12 4 12C3.46957 12 2.96086 11.7893 2.58579 11.4142C2.21071 11.0391 2 10.5304 2 10Z" fill="var(--fill-0, #24CB71)"/>
<path id="Vector_2" d="M6 0V4H8C8.53043 4 9.03914 3.78929 9.41421 3.41421C9.78929 3.03914 10 2.53043 10 2C10 1.46957 9.78929 0.960859 9.41421 0.585786C9.03914 0.210714 8.53043 0 8 0L6 0Z" fill="var(--fill-0, #FF7237)"/>
<path id="Vector_3" d="M7.9835 8C8.51393 8 9.02264 7.78929 9.39771 7.41421C9.77279 7.03914 9.9835 6.53043 9.9835 6C9.9835 5.46957 9.77279 4.96086 9.39771 4.58579C9.02264 4.21071 8.51393 4 7.9835 4C7.45307 4 6.94436 4.21071 6.56929 4.58579C6.19421 4.96086 5.9835 5.46957 5.9835 6C5.9835 6.53043 6.19421 7.03914 6.56929 7.41421C6.94436 7.78929 7.45307 8 7.9835 8Z" fill="var(--fill-0, #00B6FF)"/>
<path id="Vector_4" d="M2 2C2 2.53043 2.21071 3.03914 2.58579 3.41421C2.96086 3.78929 3.46957 4 4 4H6V0H4C3.46957 0 2.96086 0.210714 2.58579 0.585786C2.21071 0.960859 2 1.46957 2 2Z" fill="var(--fill-0, #FF3737)"/>
<path id="Vector_5" d="M2 6C2 6.53043 2.21071 7.03914 2.58579 7.41421C2.96086 7.78929 3.46957 8 4 8H6V4H4C3.46957 4 2.96086 4.21071 2.58579 4.58579C2.21071 4.96086 2 5.46957 2 6Z" fill="var(--fill-0, #874FFF)"/>
</g>
<defs>
<clipPath id="clip0_1082_661">
<rect width="12" height="12" fill="white"/>
</clipPath>
</defs>
</svg>
