<svg preserveAspectRatio="none" width="100%" height="100%" overflow="visible" style="display: block;" viewBox="0 0 36.8558 39.9885" fill="none" xmlns="http://www.w3.org/2000/svg">
<g id="Group">
<path id="Vector" d="M0.17916 12.7L6.27916 24C6.67916 24.8 7.77916 25.4 8.57916 25.4H20.9792C21.7792 25.4 22.1792 24.8 21.7792 24L15.5792 12.7C15.1792 11.9 14.0792 11.3 13.2792 11.3H0.87916H0.77916C0.0791603 11.3 -0.22084 11.9 0.17916 12.7Z" fill="var(--fill-0, #220D4E)"/>
<path id="Vector_2" d="M23.7792 25.8L27.4792 32.5C27.6792 33 28.2792 33.3 28.8792 33.3L36.2792 33.2C36.7792 33.2 36.9792 32.8 36.7792 32.4L33.0792 25.7C32.8792 25.2 32.2792 24.9 31.6792 24.9L24.2792 25C23.7792 25 23.4792 25.4 23.7792 25.8Z" fill="var(--fill-0, #220D4E)"/>
<path id="Vector_3" d="M23.7792 0.4L16.3792 9.6C15.8792 10.2 15.8792 11.4 16.2792 12.1L22.4792 23.3C22.8792 24.1 23.5792 24.2 24.1792 23.5L31.5792 14.3C32.0792 13.7 32.0792 12.5 31.6792 11.8L25.4792 0.7C25.2792 0.3 24.8792 0 24.4792 0C24.2792 0 24.0792 0.1 23.7792 0.4Z" fill="var(--fill-0, #220D4E)"/>
<path id="Vector_4" d="M22.0792 25.9L17.6792 31.4C17.3792 31.8 17.2792 32.4 17.5792 32.9L21.2792 39.6C21.4792 40.1 21.9792 40.1 22.2792 39.7L26.6792 34.2C26.9792 33.8 27.0792 33.2 26.7792 32.7L23.1792 26C23.0792 25.8 22.7792 25.6 22.6792 25.6C22.3792 25.7 22.2792 25.7 22.0792 25.9Z" fill="var(--fill-0, #220D4E)"/>
</g>
</svg>
