<svg preserveAspectRatio="none" width="100%" height="100%" overflow="visible" style="display: block;" viewBox="0 0 81.5107 81.5594" fill="none" xmlns="http://www.w3.org/2000/svg">
<g id="Group">
<path id="Vector" d="M54.8336 16.2365C60.0336 23.7365 62.7336 32.6365 62.6336 41.7365C62.6336 41.9365 62.7336 42.0365 62.9336 42.0365C63.0336 42.0365 63.1336 41.9366 63.2336 41.9366C63.9336 40.7366 64.5336 39.5365 65.1336 38.3365C69.3336 29.0365 69.6336 18.3365 65.9336 8.73655C57.4336 1.93655 46.6336 -1.06345 35.8336 0.336547C35.6336 0.336547 35.5336 0.536547 35.5336 0.736547C35.5336 0.836547 35.6336 0.936547 35.7336 1.03655C43.4336 4.13655 50.1336 9.43655 54.8336 16.2365Z" fill="var(--fill-0, #3088F4)"/>
<path id="Vector_2" d="M69.3336 40.1365C65.4336 48.8365 58.8336 56.0365 50.4336 60.5365C50.2336 60.6365 50.2336 60.8365 50.3336 60.9365C50.4336 61.0365 50.5336 61.1365 50.6336 61.1365C52.6336 61.1365 54.6336 61.0365 56.6336 60.6365C66.2336 59.1365 74.8336 54.1365 81.0336 46.7365C82.7336 35.9365 79.8336 24.9365 73.2336 16.2365C73.1336 16.1365 72.9336 16.0365 72.8336 16.1365C72.7336 16.2365 72.7336 16.3365 72.7336 16.4365C73.8336 24.5365 72.6336 32.7365 69.3336 40.1365ZM27.7336 16.1365C36.3336 15.5365 44.9336 17.6365 52.3336 22.2365C52.5336 22.3365 52.7336 22.3365 52.7336 22.1365C52.8336 22.0365 52.8336 21.9365 52.7336 21.8365C52.1336 20.8365 51.5336 19.9365 50.9336 18.9365C45.0336 10.3365 35.8336 4.53655 25.5336 2.93655C15.4336 6.93655 7.33362 14.9365 3.13362 24.9365C3.03362 25.1365 3.13362 25.3365 3.33362 25.3365C3.43362 25.3365 3.53362 25.3365 3.63362 25.3365C10.6336 19.9365 19.0336 16.7365 27.7336 16.1365Z" fill="var(--fill-0, #3088F4)"/>
<path id="Vector_3" d="M57.3336 65.2365C47.2336 66.8365 36.8336 64.6365 28.3336 59.1365C28.1336 59.0365 27.9336 59.0365 27.9336 59.2365C27.8336 59.3365 27.8336 59.4365 27.9336 59.5365C28.6336 60.8365 29.5336 62.1366 30.4336 63.4366C36.6336 71.6365 45.7336 77.1366 55.8336 78.8366C65.9336 74.8366 74.1336 66.8365 78.3336 56.7365C78.4336 56.5365 78.3336 56.3365 78.1336 56.3365C78.0336 56.3365 77.9336 56.3365 77.8336 56.3365C71.8336 60.9365 64.8336 64.0365 57.3336 65.2365Z" fill="var(--fill-0, #3088F4)"/>
<path id="Vector_4" d="M26.7336 66.1365C21.1336 58.6365 18.2336 49.4365 18.6336 40.0365C18.6336 39.8365 18.5336 39.7365 18.3336 39.7365C18.2336 39.7365 18.1336 39.8365 18.0336 39.8365C17.4336 40.8365 16.9336 41.8365 16.4336 42.8365C12.1336 52.2365 11.8336 62.9365 15.4336 72.5365C24.0336 79.4365 35.0336 82.6365 45.9336 81.2365C46.1336 81.2365 46.2336 81.0366 46.2336 80.8366C46.2336 80.7366 46.1336 80.6365 46.0336 80.5365C38.3336 77.6365 31.7336 72.6365 26.7336 66.1365Z" fill="var(--fill-0, #3088F4)"/>
<path id="Vector_5" d="M11.8336 41.1365C15.5336 32.5365 22.1336 25.4365 30.4336 21.1365C30.6336 21.0365 30.6336 20.8365 30.5336 20.7365C30.4336 20.6365 30.3336 20.5365 30.2336 20.5365C29.1336 20.5365 27.9336 20.5365 26.8336 20.6365C16.5336 21.5365 7.03362 26.6365 0.533624 34.6365C-1.26638 45.5365 1.53362 56.6365 8.23362 65.4365C8.33362 65.5365 8.53363 65.6365 8.63363 65.5365C8.73363 65.4365 8.73362 65.3365 8.73362 65.2365C7.63362 57.0365 8.63362 48.7365 11.8336 41.1365Z" fill="var(--fill-0, #3088F4)"/>
</g>
</svg>
