<svg preserveAspectRatio="none" width="100%" height="100%" overflow="visible" style="display: block;" viewBox="0 0 337.409 511.987" fill="none" xmlns="http://www.w3.org/2000/svg">
<g id="Group">
<path id="Vector" d="M240.706 193.198C243.879 193.402 248.304 194.61 253.492 195.363L306.151 229.388L134.009 331.774C127.131 334.269 119.998 335.991 112.739 336.909C109.937 337.221 106.123 337.542 101.606 337.578L35.4841 258.722L174.28 204.846C174.263 204.864 174.235 204.882 174.209 204.899C188.407 199.569 200.755 196.846 209.809 195.363C219.855 193.719 229.712 192.185 240.722 193.202L240.706 193.198Z" fill="var(--fill-0, #FFC400)"/>
<path id="Vector_2" d="M237.535 62.335C236.5 57.6543 235.151 53.0483 233.499 48.548C230.74 40.914 224.553 24.332 209.409 9.348C205.973 5.94592 202.273 2.82023 198.345 0C179.843 22.27 163.244 38.342 152.271 48.343C123.474 74.577 76.3371 110.981 46.0671 138.384C40.8161 143.135 30.1461 153.877 20.5111 170.226C20.4941 170.253 20.4761 170.279 20.4581 170.315V170.289C18.272 174.052 16.2373 177.9 14.3591 181.826C14.0291 182.495 13.6901 183.236 13.3231 184.022C12.3369 186.154 11.3964 188.306 10.5021 190.478C6.72512 199.666 2.09911 211.166 0.582114 226.471C-0.748886 239.821 0.840116 250.402 1.68912 254.991C2.00112 256.67 2.35912 258.303 2.74212 259.92C4.02285 265.437 5.81355 270.824 8.09112 276.01C18.4671 300.074 35.5571 314.004 38.4411 316.29C56.6661 330.693 75.0871 334.8 80.9621 335.926C87.7635 337.222 94.6851 337.779 101.606 337.586C101.605 337.564 101.599 337.542 101.588 337.523H101.659C101.624 337.479 101.588 337.425 101.553 337.381C100.12 332.107 99.1579 326.716 98.6781 321.272C96.6321 298.057 104.008 280.171 107.785 271.269C110.643 264.545 117.652 248.758 132.591 234.4C139.555 227.703 147.091 222.302 154.566 217.399C162.673 212.077 169.763 207.934 173.808 205.13C173.942 205.05 173.674 205.21 173.808 205.13C173.959 205.032 174.21 204.872 174.335 204.774C188.532 194.273 216.409 170.584 230.955 132.42C232.669 127.946 233.999 123.553 233.999 123.553C238.563 109.311 243.054 87.301 237.518 62.317L237.535 62.335Z" fill="url(#paint0_linear_1082_510)"/>
<path id="Vector_3" d="M101.545 337.618C94.624 337.812 87.7024 337.255 80.9011 335.958C75.0251 334.834 56.6041 330.726 38.3801 316.322C34.7371 313.438 8.43112 292 1.61812 255.023C0.770121 250.434 -0.818881 239.853 0.511119 226.503C2.03812 211.199 6.65412 199.707 10.4311 190.51C13.2842 183.558 16.6106 176.81 20.3871 170.313C22.001 174.829 24.1187 179.148 26.7001 183.189C33.8441 194.359 42.6031 200.306 49.3991 204.77C52.3541 206.708 66.1591 215.566 87.0531 220.218C101.205 223.37 112.385 223.209 116.171 223.084C128.937 222.679 141.543 220.113 153.451 215.494C162.29 212.066 169.425 207.851 174.157 204.896C170.103 207.708 162.62 212.101 154.513 217.414C147.039 222.316 139.503 227.718 132.539 234.415C117.599 248.774 110.59 264.56 107.733 271.284C103.947 280.178 96.5801 298.071 98.6251 321.287C99.111 326.799 100.091 332.256 101.554 337.592L101.545 337.618Z" fill="var(--fill-0, #FF9100)"/>
<path id="Vector_4" d="M325.985 330.295C332.307 317.643 335.075 304.294 335.075 304.294C335.779 300.892 336.789 295.874 337.235 289.632C337.638 284.042 337.379 274.944 336.039 267.657C331.771 244.531 314.074 225.798 312.252 223.914C312.252 223.914 300.304 211.528 282.705 203.037C280.125 201.795 275.677 199.634 269.472 197.75C263.364 195.894 258.382 195.153 253.444 194.438C249.191 193.819 244.913 193.381 240.622 193.125C241.638 193.237 242.645 193.41 243.64 193.643C246.524 194.322 248.551 195.348 250.131 196.116C251.605 196.84 253.836 197.965 256.293 200.054C257.292 200.912 258.534 201.974 259.765 203.653C260.775 205.046 262.096 207.234 262.802 210.126C264.927 218.904 259.57 227.083 257.623 230.057C243.818 251.138 169.152 295.088 124.899 340.707C113.631 352.323 105.63 362.718 99.6571 376.254C86.1731 406.81 90.9951 435.106 92.2541 441.625C100.424 484.003 131.203 506.95 138.32 511.987C160.018 487.735 179.215 469.225 193.387 456.304C229.263 423.606 276.017 387.461 276.017 387.461C276.017 387.461 311.922 358.441 325.975 330.305L325.985 330.295Z" fill="url(#paint1_linear_1082_510)"/>
</g>
<defs>
<linearGradient id="paint0_linear_1082_510" x1="29.6381" y1="298.512" x2="203.025" y2="6.857" gradientUnits="userSpaceOnUse">
<stop stop-color="#F8682F"/>
<stop offset="1" stop-color="#DD2C00"/>
</linearGradient>
<linearGradient id="paint1_linear_1082_510" x1="191.899" y1="217.176" x2="172.072" y2="565.113" gradientUnits="userSpaceOnUse">
<stop stop-color="#F8682F"/>
<stop offset="0.567" stop-color="#E92A4E"/>
<stop offset="1" stop-color="#C447FF"/>
</linearGradient>
</defs>
</svg>
