<svg preserveAspectRatio="none" width="100%" height="100%" overflow="visible" style="display: block;" viewBox="0 0 443.188 499.999" fill="none" xmlns="http://www.w3.org/2000/svg">
<g id="Group">
<path id="Vector" d="M3.96729e-07 444.579V55.4309C3.96729e-07 12.8258 45.6477 -13.8077 82.1847 7.49911L415.798 202.073C452.318 223.38 452.318 276.638 415.798 297.928L82.1847 492.485C45.6563 513.817 3.96729e-07 487.184 3.96729e-07 444.579Z" fill="var(--fill-0, #0080F4)"/>
<path id="Vector_2" d="M328.798 151.321L159.793 250.815L127.73 192.716C125.721 189.038 122.999 185.799 119.722 183.186C116.445 180.574 112.68 178.642 108.648 177.503C105.84 176.699 102.935 176.288 100.014 176.284C94.6279 176.284 89.2756 177.707 84.5199 180.401L0 228.384V294.656L1.37216 293.872L90.2472 243.418L122.523 301.875C124.569 305.573 127.329 308.828 130.642 311.451C133.956 314.075 137.758 316.014 141.827 317.156C145.892 318.272 150.139 318.562 154.318 318.011C158.497 317.459 162.523 316.076 166.159 313.943L385.867 184.577L328.798 151.321Z" fill="var(--fill-0, #BEF7FF)"/>
</g>
</svg>
