<svg preserveAspectRatio="none" width="100%" height="100%" overflow="visible" style="display: block;" viewBox="0 0 174 174" fill="none" xmlns="http://www.w3.org/2000/svg">
<g id="Icon 1" clip-path="url(#clip0_1082_523)">
<path id="Vector" d="M174 0H0V174H174V0Z" fill="var(--fill-0, black)"/>
<path id="Vector_2" fill-rule="evenodd" clip-rule="evenodd" d="M129.175 31.5301V141.47C129.175 143.965 127.152 145.988 124.657 145.988C122.162 145.988 120.139 143.965 120.139 141.47V31.5301C120.139 29.0349 122.162 27.012 124.657 27.012C127.152 27.012 129.175 29.0349 129.175 31.5301ZM117.127 31.5301C117.127 27.3714 120.498 24 124.657 24C128.816 24 132.187 27.3713 132.187 31.5301V141.47C132.187 145.629 128.816 149 124.657 149C120.498 149 117.127 145.629 117.127 141.47V31.5301ZM75.5911 99.2186C74.6303 99.2571 73.5298 99.3012 71.6049 99.3012C54.9355 99.3012 41.9551 86.9433 41.9551 69.8643C41.9551 52.6465 54.9355 40.5663 73.1079 40.5663H106.447V41.2605L100.162 53.4796H97.429C101.665 57.7841 104.124 63.4771 104.124 70.0032C104.124 77.7789 100.708 84.7216 95.6527 88.3318V88.7484C102.348 92.0808 106.584 100.412 106.584 109.854C106.584 126.655 92.92 138.458 72.9713 138.458C58.0781 138.458 45.371 131.932 38.8125 121.101L50.6998 110.271C55.6186 118.046 64.09 122.906 73.3812 122.906C82.809 122.906 89.3675 117.769 89.3675 110.271C89.3675 103.606 84.5853 99.1623 77.8902 99.1623C76.9956 99.1623 76.3353 99.1888 75.5911 99.2186ZM72.9713 55.8401C64.7732 55.8401 58.7612 62.0885 58.7612 69.8643C58.7612 77.9178 64.6366 84.0273 72.9713 84.0273C81.306 84.0273 87.4546 77.9178 87.4546 69.8643C87.4546 62.2274 81.306 55.8401 72.9713 55.8401Z" fill="var(--fill-0, white)"/>
</g>
<defs>
<clipPath id="clip0_1082_523">
<rect width="174" height="174" fill="white"/>
</clipPath>
</defs>
</svg>
