<svg preserveAspectRatio="none" width="100%" height="100%" overflow="visible" style="display: block;" viewBox="0 0 12 12" fill="none" xmlns="http://www.w3.org/2000/svg">
<g id="railway 1" clip-path="url(#clip0_1082_457)">
<path id="Vector" fill-rule="evenodd" clip-rule="evenodd" d="M0.0555 5.135C0.027 5.335 0.0085 5.537 0 5.739H9.115C9.0813 5.67768 9.04179 5.61975 8.997 5.566C7.439 3.553 6.6005 3.7275 5.402 3.676C5.002 3.66 4.7305 3.653 3.1395 3.653C2.2875 3.653 1.362 3.6555 0.46 3.658C0.3435 3.973 0.231 4.278 0.176 4.5265H4.847V5.135H0.055H0.0555ZM9.1865 6.348H0.005C0.015 6.5105 0.03 6.6705 0.052 6.8285H8.529C8.907 6.8285 9.1185 6.614 9.187 6.3485L9.1865 6.348ZM0.5275 8.488C0.5275 8.488 1.9325 11.939 5.9935 12C8.4205 12 10.506 10.5585 11.4535 8.488H0.5275Z" fill="var(--fill-0, black)"/>
<path id="Vector_2" fill-rule="evenodd" clip-rule="evenodd" d="M5.9935 0C3.75 0 1.7965 1.2325 0.7655 3.054C1.571 3.0525 3.1405 3.0515 3.1405 3.0515L3.141 3.051C4.996 3.051 5.065 3.059 5.4275 3.074L5.6525 3.0825C6.4335 3.1085 7.3945 3.1925 8.1505 3.7645C8.5605 4.0745 9.153 4.7595 9.5065 5.247C9.833 5.698 9.9265 6.217 9.7045 6.714C9.5005 7.1705 9.061 7.443 8.5285 7.443H0.195C0.195 7.443 0.245 7.653 0.319 7.8855H11.694C11.8958 7.2782 11.9987 6.64244 11.999 6.0025C12 2.6875 9.311 0 5.9935 0Z" fill="var(--fill-0, black)"/>
</g>
<defs>
<clipPath id="clip0_1082_457">
<rect width="12" height="12" fill="white"/>
</clipPath>
</defs>
</svg>
